%TF.GenerationSoftware,KiCad,Pcbnew,(6.0.4)*%
%TF.CreationDate,2022-04-29T21:33:46+01:00*%
%TF.ProjectId,environment_sensor,656e7669-726f-46e6-9d65-6e745f73656e,v0.1*%
%TF.SameCoordinates,Original*%
%TF.FileFunction,Legend,Bot*%
%TF.FilePolarity,Positive*%
%FSLAX46Y46*%
G04 Gerber Fmt 4.6, Leading zero omitted, Abs format (unit mm)*
G04 Created by KiCad (PCBNEW (6.0.4)) date 2022-04-29 21:33:46*
%MOMM*%
%LPD*%
G01*
G04 APERTURE LIST*
%ADD10C,0.160000*%
G04 APERTURE END LIST*
D10*
X197810285Y-100697142D02*
X197536476Y-100792380D01*
X197453142Y-100887619D01*
X197381714Y-101078095D01*
X197417428Y-101363809D01*
X197536476Y-101554285D01*
X197643619Y-101649523D01*
X197846000Y-101744761D01*
X198607904Y-101744761D01*
X198357904Y-99744761D01*
X197691238Y-99744761D01*
X197512666Y-99840000D01*
X197429333Y-99935238D01*
X197357904Y-100125714D01*
X197381714Y-100316190D01*
X197500761Y-100506666D01*
X197607904Y-100601904D01*
X197810285Y-100697142D01*
X198476952Y-100697142D01*
X196631714Y-100411428D02*
X196322190Y-101744761D01*
X195679333Y-100411428D02*
X196322190Y-101744761D01*
X196572190Y-102220952D01*
X196679333Y-102316190D01*
X196881714Y-102411428D01*
X192607904Y-101744761D02*
X193560285Y-101744761D01*
X193310285Y-99744761D01*
X190917428Y-100411428D02*
X191084095Y-101744761D01*
X191774571Y-100411428D02*
X191905523Y-101459047D01*
X191834095Y-101649523D01*
X191655523Y-101744761D01*
X191369809Y-101744761D01*
X191167428Y-101649523D01*
X191060285Y-101554285D01*
X190131714Y-101744761D02*
X189965047Y-100411428D01*
X189881714Y-99744761D02*
X189988857Y-99840000D01*
X189905523Y-99935238D01*
X189798380Y-99840000D01*
X189881714Y-99744761D01*
X189905523Y-99935238D01*
X189262666Y-101649523D02*
X189084095Y-101744761D01*
X188703142Y-101744761D01*
X188500761Y-101649523D01*
X188381714Y-101459047D01*
X188369809Y-101363809D01*
X188441238Y-101173333D01*
X188619809Y-101078095D01*
X188905523Y-101078095D01*
X189084095Y-100982857D01*
X189155523Y-100792380D01*
X189143619Y-100697142D01*
X189024571Y-100506666D01*
X188822190Y-100411428D01*
X188536476Y-100411428D01*
X188357904Y-100506666D01*
X186036476Y-101744761D02*
X185786476Y-99744761D01*
X185024571Y-99744761D01*
X184846000Y-99840000D01*
X184762666Y-99935238D01*
X184691238Y-100125714D01*
X184726952Y-100411428D01*
X184846000Y-100601904D01*
X184953142Y-100697142D01*
X185155523Y-100792380D01*
X185917428Y-100792380D01*
X183262666Y-101649523D02*
X183465047Y-101744761D01*
X183846000Y-101744761D01*
X184024571Y-101649523D01*
X184096000Y-101459047D01*
X184000761Y-100697142D01*
X183881714Y-100506666D01*
X183679333Y-100411428D01*
X183298380Y-100411428D01*
X183119809Y-100506666D01*
X183048380Y-100697142D01*
X183072190Y-100887619D01*
X184048380Y-101078095D01*
X182322190Y-101744761D02*
X182155523Y-100411428D01*
X182203142Y-100792380D02*
X182084095Y-100601904D01*
X181976952Y-100506666D01*
X181774571Y-100411428D01*
X181584095Y-100411428D01*
X180310285Y-101649523D02*
X180512666Y-101744761D01*
X180893619Y-101744761D01*
X181072190Y-101649523D01*
X181143619Y-101459047D01*
X181048380Y-100697142D01*
X180929333Y-100506666D01*
X180726952Y-100411428D01*
X180346000Y-100411428D01*
X180167428Y-100506666D01*
X180096000Y-100697142D01*
X180119809Y-100887619D01*
X181096000Y-101078095D01*
X179369809Y-101744761D02*
X179203142Y-100411428D01*
X179119809Y-99744761D02*
X179226952Y-99840000D01*
X179143619Y-99935238D01*
X179036476Y-99840000D01*
X179119809Y-99744761D01*
X179143619Y-99935238D01*
X178417428Y-101744761D02*
X178250761Y-100411428D01*
X178298380Y-100792380D02*
X178179333Y-100601904D01*
X178072190Y-100506666D01*
X177869809Y-100411428D01*
X177679333Y-100411428D01*
X176322190Y-101744761D02*
X176191238Y-100697142D01*
X176262666Y-100506666D01*
X176441238Y-100411428D01*
X176822190Y-100411428D01*
X177024571Y-100506666D01*
X176310285Y-101649523D02*
X176512666Y-101744761D01*
X176988857Y-101744761D01*
X177167428Y-101649523D01*
X177238857Y-101459047D01*
X177215047Y-101268571D01*
X177096000Y-101078095D01*
X176893619Y-100982857D01*
X176417428Y-100982857D01*
X176215047Y-100887619D01*
X198476952Y-103155238D02*
X198369809Y-103060000D01*
X198167428Y-102964761D01*
X197691238Y-102964761D01*
X197512666Y-103060000D01*
X197429333Y-103155238D01*
X197357904Y-103345714D01*
X197381714Y-103536190D01*
X197512666Y-103821904D01*
X198798380Y-104964761D01*
X197560285Y-104964761D01*
X196072190Y-102964761D02*
X195881714Y-102964761D01*
X195703142Y-103060000D01*
X195619809Y-103155238D01*
X195548380Y-103345714D01*
X195500761Y-103726666D01*
X195560285Y-104202857D01*
X195703142Y-104583809D01*
X195822190Y-104774285D01*
X195929333Y-104869523D01*
X196131714Y-104964761D01*
X196322190Y-104964761D01*
X196500761Y-104869523D01*
X196584095Y-104774285D01*
X196655523Y-104583809D01*
X196703142Y-104202857D01*
X196643619Y-103726666D01*
X196500761Y-103345714D01*
X196381714Y-103155238D01*
X196274571Y-103060000D01*
X196072190Y-102964761D01*
X194667428Y-103155238D02*
X194560285Y-103060000D01*
X194357904Y-102964761D01*
X193881714Y-102964761D01*
X193703142Y-103060000D01*
X193619809Y-103155238D01*
X193548380Y-103345714D01*
X193572190Y-103536190D01*
X193703142Y-103821904D01*
X194988857Y-104964761D01*
X193750761Y-104964761D01*
X192762666Y-103155238D02*
X192655523Y-103060000D01*
X192453142Y-102964761D01*
X191976952Y-102964761D01*
X191798380Y-103060000D01*
X191715047Y-103155238D01*
X191643619Y-103345714D01*
X191667428Y-103536190D01*
X191798380Y-103821904D01*
X193084095Y-104964761D01*
X191846000Y-104964761D01*
X190357904Y-102964761D02*
X190167428Y-102964761D01*
X189988857Y-103060000D01*
X189905523Y-103155238D01*
X189834095Y-103345714D01*
X189786476Y-103726666D01*
X189846000Y-104202857D01*
X189988857Y-104583809D01*
X190107904Y-104774285D01*
X190215047Y-104869523D01*
X190417428Y-104964761D01*
X190607904Y-104964761D01*
X190786476Y-104869523D01*
X190869809Y-104774285D01*
X190941238Y-104583809D01*
X190988857Y-104202857D01*
X190929333Y-103726666D01*
X190786476Y-103345714D01*
X190667428Y-103155238D01*
X190560285Y-103060000D01*
X190357904Y-102964761D01*
X188060285Y-103631428D02*
X188226952Y-104964761D01*
X188441238Y-102869523D02*
X189096000Y-104298095D01*
X187857904Y-104298095D01*
X187048380Y-103155238D02*
X186941238Y-103060000D01*
X186738857Y-102964761D01*
X186262666Y-102964761D01*
X186084095Y-103060000D01*
X186000761Y-103155238D01*
X185929333Y-103345714D01*
X185953142Y-103536190D01*
X186084095Y-103821904D01*
X187369809Y-104964761D01*
X186131714Y-104964761D01*
X185179333Y-104964761D02*
X184798380Y-104964761D01*
X184596000Y-104869523D01*
X184488857Y-104774285D01*
X184262666Y-104488571D01*
X184119809Y-104107619D01*
X184024571Y-103345714D01*
X184096000Y-103155238D01*
X184179333Y-103060000D01*
X184357904Y-102964761D01*
X184738857Y-102964761D01*
X184941238Y-103060000D01*
X185048380Y-103155238D01*
X185167428Y-103345714D01*
X185226952Y-103821904D01*
X185155523Y-104012380D01*
X185072190Y-104107619D01*
X184893619Y-104202857D01*
X184512666Y-104202857D01*
X184310285Y-104107619D01*
X184203142Y-104012380D01*
X184084095Y-103821904D01*
X198943719Y-87526985D02*
X197610385Y-87526985D01*
X197038957Y-89622223D02*
X198943719Y-89622223D01*
X198943719Y-85622223D01*
X197038957Y-85622223D01*
X195324671Y-86955557D02*
X195324671Y-89622223D01*
X195324671Y-87336509D02*
X195134195Y-87146033D01*
X194753242Y-86955557D01*
X194181814Y-86955557D01*
X193800861Y-87146033D01*
X193610385Y-87526985D01*
X193610385Y-89622223D01*
X192086576Y-86955557D02*
X191134195Y-89622223D01*
X190181814Y-86955557D01*
X188658004Y-89622223D02*
X188658004Y-86955557D01*
X188658004Y-85622223D02*
X188848480Y-85812700D01*
X188658004Y-86003176D01*
X188467528Y-85812700D01*
X188658004Y-85622223D01*
X188658004Y-86003176D01*
X186753242Y-89622223D02*
X186753242Y-86955557D01*
X186753242Y-87717461D02*
X186562766Y-87336509D01*
X186372290Y-87146033D01*
X185991338Y-86955557D01*
X185610385Y-86955557D01*
X183705623Y-89622223D02*
X184086576Y-89431747D01*
X184277052Y-89241271D01*
X184467528Y-88860319D01*
X184467528Y-87717461D01*
X184277052Y-87336509D01*
X184086576Y-87146033D01*
X183705623Y-86955557D01*
X183134195Y-86955557D01*
X182753242Y-87146033D01*
X182562766Y-87336509D01*
X182372290Y-87717461D01*
X182372290Y-88860319D01*
X182562766Y-89241271D01*
X182753242Y-89431747D01*
X183134195Y-89622223D01*
X183705623Y-89622223D01*
X180658004Y-86955557D02*
X180658004Y-89622223D01*
X180658004Y-87336509D02*
X180467528Y-87146033D01*
X180086576Y-86955557D01*
X179515147Y-86955557D01*
X179134195Y-87146033D01*
X178943719Y-87526985D01*
X178943719Y-89622223D01*
X177038957Y-89622223D02*
X177038957Y-86955557D01*
X177038957Y-87336509D02*
X176848480Y-87146033D01*
X176467528Y-86955557D01*
X175896100Y-86955557D01*
X175515147Y-87146033D01*
X175324671Y-87526985D01*
X175324671Y-89622223D01*
X175324671Y-87526985D02*
X175134195Y-87146033D01*
X174753242Y-86955557D01*
X174181814Y-86955557D01*
X173800861Y-87146033D01*
X173610385Y-87526985D01*
X173610385Y-89622223D01*
X170181814Y-89431747D02*
X170562766Y-89622223D01*
X171324671Y-89622223D01*
X171705623Y-89431747D01*
X171896100Y-89050795D01*
X171896100Y-87526985D01*
X171705623Y-87146033D01*
X171324671Y-86955557D01*
X170562766Y-86955557D01*
X170181814Y-87146033D01*
X169991338Y-87526985D01*
X169991338Y-87907938D01*
X171896100Y-88288890D01*
X168277052Y-86955557D02*
X168277052Y-89622223D01*
X168277052Y-87336509D02*
X168086576Y-87146033D01*
X167705623Y-86955557D01*
X167134195Y-86955557D01*
X166753242Y-87146033D01*
X166562766Y-87526985D01*
X166562766Y-89622223D01*
X165229433Y-86955557D02*
X163705623Y-86955557D01*
X164658004Y-85622223D02*
X164658004Y-89050795D01*
X164467528Y-89431747D01*
X164086576Y-89622223D01*
X163705623Y-89622223D01*
X199134195Y-95871747D02*
X198562766Y-96062223D01*
X197610385Y-96062223D01*
X197229433Y-95871747D01*
X197038957Y-95681271D01*
X196848480Y-95300319D01*
X196848480Y-94919366D01*
X197038957Y-94538414D01*
X197229433Y-94347938D01*
X197610385Y-94157461D01*
X198372290Y-93966985D01*
X198753242Y-93776509D01*
X198943719Y-93586033D01*
X199134195Y-93205080D01*
X199134195Y-92824128D01*
X198943719Y-92443176D01*
X198753242Y-92252700D01*
X198372290Y-92062223D01*
X197419909Y-92062223D01*
X196848480Y-92252700D01*
X193610385Y-95871747D02*
X193991338Y-96062223D01*
X194753242Y-96062223D01*
X195134195Y-95871747D01*
X195324671Y-95490795D01*
X195324671Y-93966985D01*
X195134195Y-93586033D01*
X194753242Y-93395557D01*
X193991338Y-93395557D01*
X193610385Y-93586033D01*
X193419909Y-93966985D01*
X193419909Y-94347938D01*
X195324671Y-94728890D01*
X191705623Y-93395557D02*
X191705623Y-96062223D01*
X191705623Y-93776509D02*
X191515147Y-93586033D01*
X191134195Y-93395557D01*
X190562766Y-93395557D01*
X190181814Y-93586033D01*
X189991338Y-93966985D01*
X189991338Y-96062223D01*
X188277052Y-95871747D02*
X187896100Y-96062223D01*
X187134195Y-96062223D01*
X186753242Y-95871747D01*
X186562766Y-95490795D01*
X186562766Y-95300319D01*
X186753242Y-94919366D01*
X187134195Y-94728890D01*
X187705623Y-94728890D01*
X188086576Y-94538414D01*
X188277052Y-94157461D01*
X188277052Y-93966985D01*
X188086576Y-93586033D01*
X187705623Y-93395557D01*
X187134195Y-93395557D01*
X186753242Y-93586033D01*
X184277052Y-96062223D02*
X184658004Y-95871747D01*
X184848480Y-95681271D01*
X185038957Y-95300319D01*
X185038957Y-94157461D01*
X184848480Y-93776509D01*
X184658004Y-93586033D01*
X184277052Y-93395557D01*
X183705623Y-93395557D01*
X183324671Y-93586033D01*
X183134195Y-93776509D01*
X182943719Y-94157461D01*
X182943719Y-95300319D01*
X183134195Y-95681271D01*
X183324671Y-95871747D01*
X183705623Y-96062223D01*
X184277052Y-96062223D01*
X181229433Y-96062223D02*
X181229433Y-93395557D01*
X181229433Y-94157461D02*
X181038957Y-93776509D01*
X180848480Y-93586033D01*
X180467528Y-93395557D01*
X180086576Y-93395557D01*
X198969023Y-96998661D02*
X198302357Y-98998661D01*
X197635690Y-96998661D01*
X196588071Y-96998661D02*
X196397595Y-96998661D01*
X196207119Y-97093900D01*
X196111880Y-97189138D01*
X196016642Y-97379614D01*
X195921404Y-97760566D01*
X195921404Y-98236757D01*
X196016642Y-98617709D01*
X196111880Y-98808185D01*
X196207119Y-98903423D01*
X196397595Y-98998661D01*
X196588071Y-98998661D01*
X196778547Y-98903423D01*
X196873785Y-98808185D01*
X196969023Y-98617709D01*
X197064261Y-98236757D01*
X197064261Y-97760566D01*
X196969023Y-97379614D01*
X196873785Y-97189138D01*
X196778547Y-97093900D01*
X196588071Y-96998661D01*
X195064261Y-98808185D02*
X194969023Y-98903423D01*
X195064261Y-98998661D01*
X195159500Y-98903423D01*
X195064261Y-98808185D01*
X195064261Y-98998661D01*
X193064261Y-98998661D02*
X194207119Y-98998661D01*
X193635690Y-98998661D02*
X193635690Y-96998661D01*
X193826166Y-97284376D01*
X194016642Y-97474852D01*
X194207119Y-97570090D01*
M02*
