%TF.GenerationSoftware,KiCad,Pcbnew,(6.0.4)*%
%TF.CreationDate,2022-04-29T21:33:46+01:00*%
%TF.ProjectId,environment_sensor,656e7669-726f-46e6-9d65-6e745f73656e,v0.1*%
%TF.SameCoordinates,Original*%
%TF.FileFunction,Copper,L1,Top*%
%TF.FilePolarity,Positive*%
%FSLAX46Y46*%
G04 Gerber Fmt 4.6, Leading zero omitted, Abs format (unit mm)*
G04 Created by KiCad (PCBNEW (6.0.4)) date 2022-04-29 21:33:46*
%MOMM*%
%LPD*%
G01*
G04 APERTURE LIST*
G04 Aperture macros list*
%AMRoundRect*
0 Rectangle with rounded corners*
0 $1 Rounding radius*
0 $2 $3 $4 $5 $6 $7 $8 $9 X,Y pos of 4 corners*
0 Add a 4 corners polygon primitive as box body*
4,1,4,$2,$3,$4,$5,$6,$7,$8,$9,$2,$3,0*
0 Add four circle primitives for the rounded corners*
1,1,$1+$1,$2,$3*
1,1,$1+$1,$4,$5*
1,1,$1+$1,$6,$7*
1,1,$1+$1,$8,$9*
0 Add four rect primitives between the rounded corners*
20,1,$1+$1,$2,$3,$4,$5,0*
20,1,$1+$1,$4,$5,$6,$7,0*
20,1,$1+$1,$6,$7,$8,$9,0*
20,1,$1+$1,$8,$9,$2,$3,0*%
G04 Aperture macros list end*
%TA.AperFunction,ComponentPad*%
%ADD10C,1.524000*%
%TD*%
%TA.AperFunction,ComponentPad*%
%ADD11R,1.800000X1.800000*%
%TD*%
%TA.AperFunction,ComponentPad*%
%ADD12C,1.800000*%
%TD*%
%TA.AperFunction,ComponentPad*%
%ADD13R,2.000000X2.000000*%
%TD*%
%TA.AperFunction,ComponentPad*%
%ADD14O,1.600000X2.000000*%
%TD*%
%TA.AperFunction,SMDPad,CuDef*%
%ADD15RoundRect,0.250000X-0.450000X0.262500X-0.450000X-0.262500X0.450000X-0.262500X0.450000X0.262500X0*%
%TD*%
%TA.AperFunction,ComponentPad*%
%ADD16R,3.000000X3.000000*%
%TD*%
%TA.AperFunction,ComponentPad*%
%ADD17C,3.000000*%
%TD*%
%TA.AperFunction,ViaPad*%
%ADD18C,0.400000*%
%TD*%
%TA.AperFunction,ViaPad*%
%ADD19C,0.500000*%
%TD*%
%TA.AperFunction,ViaPad*%
%ADD20C,4.500000*%
%TD*%
%TA.AperFunction,Conductor*%
%ADD21C,0.200000*%
%TD*%
%TA.AperFunction,Conductor*%
%ADD22C,0.300000*%
%TD*%
G04 APERTURE END LIST*
D10*
X193675000Y-81280000D03*
X191135000Y-81280000D03*
X188595000Y-81280000D03*
X186055000Y-81280000D03*
X183515000Y-81280000D03*
X180975000Y-81280000D03*
X178435000Y-81280000D03*
X175895000Y-81280000D03*
X173355000Y-81280000D03*
X170815000Y-81280000D03*
X168275000Y-81280000D03*
X165735000Y-81280000D03*
X163195000Y-81280000D03*
X160655000Y-81280000D03*
X158115000Y-81280000D03*
X158115000Y-109220000D03*
X160655000Y-109220000D03*
X163195000Y-109220000D03*
X165735000Y-109220000D03*
X168275000Y-109220000D03*
X170815000Y-109220000D03*
X173355000Y-109220000D03*
X175895000Y-109220000D03*
X178435000Y-109220000D03*
X180975000Y-109220000D03*
X183515000Y-109220000D03*
X186055000Y-109220000D03*
X188595000Y-109220000D03*
X191135000Y-109220000D03*
X193675000Y-109220000D03*
D11*
X133857000Y-95446500D03*
D12*
X136397000Y-95446500D03*
D13*
X175895000Y-83797000D03*
D14*
X173355000Y-83797000D03*
X170815000Y-83797000D03*
X168275000Y-83797000D03*
X165735000Y-83797000D03*
X163195000Y-83797000D03*
X160655000Y-83797000D03*
X158115000Y-83797000D03*
X158115000Y-106657000D03*
X160655000Y-106657000D03*
X163195000Y-106657000D03*
X165735000Y-106657000D03*
X168275000Y-106657000D03*
X170815000Y-106657000D03*
X173355000Y-106657000D03*
X175895000Y-106657000D03*
D15*
X139450000Y-94637500D03*
X139450000Y-96462500D03*
D16*
X140716000Y-83947000D03*
D17*
X135636000Y-83947000D03*
X130556000Y-83947000D03*
X125476000Y-83947000D03*
D16*
X125476000Y-106553000D03*
D17*
X130556000Y-106553000D03*
X135636000Y-106553000D03*
X140716000Y-106553000D03*
D18*
X141050000Y-91600000D03*
X125476000Y-91626000D03*
X129564000Y-103814000D03*
X191064000Y-103814000D03*
X170814000Y-103814000D03*
X135636000Y-103814000D03*
X188595000Y-102505000D03*
X168284000Y-102466000D03*
X140716000Y-102466000D03*
D19*
X178435000Y-90015000D03*
X169565480Y-89984520D03*
X133857000Y-89993000D03*
X159405480Y-89994520D03*
X130556000Y-95456000D03*
X158074000Y-100024000D03*
X125476000Y-100024000D03*
X167000000Y-94600000D03*
X158100000Y-94650000D03*
D20*
X126100000Y-95500000D03*
X203200000Y-107500000D03*
X203150000Y-82900000D03*
D21*
X141024000Y-91626000D02*
X141050000Y-91600000D01*
X140874000Y-91626000D02*
X141024000Y-91626000D01*
X125476000Y-91626000D02*
X140874000Y-91626000D01*
X135636000Y-103814000D02*
X129564000Y-103814000D01*
X170814000Y-103814000D02*
X191064000Y-103814000D01*
X135636000Y-103814000D02*
X170814000Y-103814000D01*
X188595000Y-102505000D02*
X168323000Y-102505000D01*
X168323000Y-102505000D02*
X168284000Y-102466000D01*
X140716000Y-102466000D02*
X168284000Y-102466000D01*
D22*
X178435000Y-90015000D02*
X169595960Y-90015000D01*
X169595960Y-90015000D02*
X169565480Y-89984520D01*
X169565480Y-89984520D02*
X159415480Y-89984520D01*
X159415480Y-89984520D02*
X159405480Y-89994520D01*
X159405480Y-89994520D02*
X159400000Y-90000000D01*
X159400000Y-90000000D02*
X133864000Y-90000000D01*
X133864000Y-90000000D02*
X133857000Y-89993000D01*
X130556000Y-95456000D02*
X130565500Y-95446500D01*
X130565500Y-95446500D02*
X133857000Y-95446500D01*
D21*
X139450000Y-96462500D02*
X139450000Y-96450000D01*
X138446500Y-95446500D02*
X136397000Y-95446500D01*
X139450000Y-96450000D02*
X138446500Y-95446500D01*
D22*
X125476000Y-100024000D02*
X158074000Y-100024000D01*
X167000000Y-94600000D02*
X158150000Y-94600000D01*
X158150000Y-94600000D02*
X158100000Y-94650000D01*
X158115000Y-83797000D02*
X158097000Y-83797000D01*
X158097000Y-83797000D02*
X157947000Y-83947000D01*
X157947000Y-83947000D02*
X140716000Y-83947000D01*
X158087500Y-94637500D02*
X158100000Y-94650000D01*
X139450000Y-94637500D02*
X158087500Y-94637500D01*
%TA.AperFunction,Conductor*%
G36*
X157070335Y-80328502D02*
G01*
X157116828Y-80382158D01*
X157126932Y-80452432D01*
X157105427Y-80506771D01*
X157016992Y-80633070D01*
X157010512Y-80642324D01*
X157008189Y-80647306D01*
X157008186Y-80647311D01*
X156927589Y-80820152D01*
X156916560Y-80843804D01*
X156859022Y-81058537D01*
X156839647Y-81280000D01*
X156859022Y-81501463D01*
X156916560Y-81716196D01*
X156918882Y-81721177D01*
X156918883Y-81721178D01*
X157008186Y-81912689D01*
X157008189Y-81912694D01*
X157010512Y-81917676D01*
X157013668Y-81922183D01*
X157013669Y-81922185D01*
X157131818Y-82090919D01*
X157138023Y-82099781D01*
X157295219Y-82256977D01*
X157299729Y-82260135D01*
X157299735Y-82260140D01*
X157373931Y-82312092D01*
X157418260Y-82367549D01*
X157425569Y-82438168D01*
X157393539Y-82501528D01*
X157373932Y-82518518D01*
X157275211Y-82587643D01*
X157275208Y-82587645D01*
X157270700Y-82590802D01*
X157108802Y-82752700D01*
X156977477Y-82940251D01*
X156975154Y-82945233D01*
X156975151Y-82945238D01*
X156889854Y-83128161D01*
X156880716Y-83147757D01*
X156879294Y-83153062D01*
X156879292Y-83153069D01*
X156868028Y-83195110D01*
X156831077Y-83255733D01*
X156767217Y-83286755D01*
X156746321Y-83288500D01*
X142850500Y-83288500D01*
X142782379Y-83268498D01*
X142735886Y-83214842D01*
X142724500Y-83162500D01*
X142724500Y-82398866D01*
X142717745Y-82336684D01*
X142666615Y-82200295D01*
X142579261Y-82083739D01*
X142462705Y-81996385D01*
X142326316Y-81945255D01*
X142264134Y-81938500D01*
X139167866Y-81938500D01*
X139105684Y-81945255D01*
X138969295Y-81996385D01*
X138852739Y-82083739D01*
X138765385Y-82200295D01*
X138714255Y-82336684D01*
X138707500Y-82398866D01*
X138707500Y-85495134D01*
X138714255Y-85557316D01*
X138765385Y-85693705D01*
X138852739Y-85810261D01*
X138969295Y-85897615D01*
X139105684Y-85948745D01*
X139167866Y-85955500D01*
X142264134Y-85955500D01*
X142326316Y-85948745D01*
X142462705Y-85897615D01*
X142579261Y-85810261D01*
X142666615Y-85693705D01*
X142717745Y-85557316D01*
X142724500Y-85495134D01*
X142724500Y-84731500D01*
X142744502Y-84663379D01*
X142798158Y-84616886D01*
X142850500Y-84605500D01*
X156878101Y-84605500D01*
X156946222Y-84625502D01*
X156981314Y-84659229D01*
X157071916Y-84788621D01*
X157108802Y-84841300D01*
X157270700Y-85003198D01*
X157275208Y-85006355D01*
X157275211Y-85006357D01*
X157307803Y-85029178D01*
X157458251Y-85134523D01*
X157463233Y-85136846D01*
X157463238Y-85136849D01*
X157606643Y-85203719D01*
X157665757Y-85231284D01*
X157671065Y-85232706D01*
X157671067Y-85232707D01*
X157881598Y-85289119D01*
X157881600Y-85289119D01*
X157886913Y-85290543D01*
X158115000Y-85310498D01*
X158343087Y-85290543D01*
X158348400Y-85289119D01*
X158348402Y-85289119D01*
X158558933Y-85232707D01*
X158558935Y-85232706D01*
X158564243Y-85231284D01*
X158623357Y-85203719D01*
X158766762Y-85136849D01*
X158766767Y-85136846D01*
X158771749Y-85134523D01*
X158922197Y-85029178D01*
X158954789Y-85006357D01*
X158954792Y-85006355D01*
X158959300Y-85003198D01*
X159121198Y-84841300D01*
X159163396Y-84781036D01*
X159198081Y-84731500D01*
X159252523Y-84653749D01*
X159254846Y-84648767D01*
X159254849Y-84648762D01*
X159270805Y-84614543D01*
X159317722Y-84561258D01*
X159385999Y-84541797D01*
X159453959Y-84562339D01*
X159499195Y-84614543D01*
X159515151Y-84648762D01*
X159515154Y-84648767D01*
X159517477Y-84653749D01*
X159571919Y-84731500D01*
X159606605Y-84781036D01*
X159648802Y-84841300D01*
X159810700Y-85003198D01*
X159815208Y-85006355D01*
X159815211Y-85006357D01*
X159847803Y-85029178D01*
X159998251Y-85134523D01*
X160003233Y-85136846D01*
X160003238Y-85136849D01*
X160146643Y-85203719D01*
X160205757Y-85231284D01*
X160211065Y-85232706D01*
X160211067Y-85232707D01*
X160421598Y-85289119D01*
X160421600Y-85289119D01*
X160426913Y-85290543D01*
X160655000Y-85310498D01*
X160883087Y-85290543D01*
X160888400Y-85289119D01*
X160888402Y-85289119D01*
X161098933Y-85232707D01*
X161098935Y-85232706D01*
X161104243Y-85231284D01*
X161163357Y-85203719D01*
X161306762Y-85136849D01*
X161306767Y-85136846D01*
X161311749Y-85134523D01*
X161462197Y-85029178D01*
X161494789Y-85006357D01*
X161494792Y-85006355D01*
X161499300Y-85003198D01*
X161661198Y-84841300D01*
X161703396Y-84781036D01*
X161738081Y-84731500D01*
X161792523Y-84653749D01*
X161794846Y-84648767D01*
X161794849Y-84648762D01*
X161810805Y-84614543D01*
X161857722Y-84561258D01*
X161925999Y-84541797D01*
X161993959Y-84562339D01*
X162039195Y-84614543D01*
X162055151Y-84648762D01*
X162055154Y-84648767D01*
X162057477Y-84653749D01*
X162111919Y-84731500D01*
X162146605Y-84781036D01*
X162188802Y-84841300D01*
X162350700Y-85003198D01*
X162355208Y-85006355D01*
X162355211Y-85006357D01*
X162387803Y-85029178D01*
X162538251Y-85134523D01*
X162543233Y-85136846D01*
X162543238Y-85136849D01*
X162686643Y-85203719D01*
X162745757Y-85231284D01*
X162751065Y-85232706D01*
X162751067Y-85232707D01*
X162961598Y-85289119D01*
X162961600Y-85289119D01*
X162966913Y-85290543D01*
X163195000Y-85310498D01*
X163423087Y-85290543D01*
X163428400Y-85289119D01*
X163428402Y-85289119D01*
X163638933Y-85232707D01*
X163638935Y-85232706D01*
X163644243Y-85231284D01*
X163703357Y-85203719D01*
X163846762Y-85136849D01*
X163846767Y-85136846D01*
X163851749Y-85134523D01*
X164002197Y-85029178D01*
X164034789Y-85006357D01*
X164034792Y-85006355D01*
X164039300Y-85003198D01*
X164201198Y-84841300D01*
X164243396Y-84781036D01*
X164278081Y-84731500D01*
X164332523Y-84653749D01*
X164334846Y-84648767D01*
X164334849Y-84648762D01*
X164350805Y-84614543D01*
X164397722Y-84561258D01*
X164465999Y-84541797D01*
X164533959Y-84562339D01*
X164579195Y-84614543D01*
X164595151Y-84648762D01*
X164595154Y-84648767D01*
X164597477Y-84653749D01*
X164651919Y-84731500D01*
X164686605Y-84781036D01*
X164728802Y-84841300D01*
X164890700Y-85003198D01*
X164895208Y-85006355D01*
X164895211Y-85006357D01*
X164927803Y-85029178D01*
X165078251Y-85134523D01*
X165083233Y-85136846D01*
X165083238Y-85136849D01*
X165226643Y-85203719D01*
X165285757Y-85231284D01*
X165291065Y-85232706D01*
X165291067Y-85232707D01*
X165501598Y-85289119D01*
X165501600Y-85289119D01*
X165506913Y-85290543D01*
X165735000Y-85310498D01*
X165963087Y-85290543D01*
X165968400Y-85289119D01*
X165968402Y-85289119D01*
X166178933Y-85232707D01*
X166178935Y-85232706D01*
X166184243Y-85231284D01*
X166243357Y-85203719D01*
X166386762Y-85136849D01*
X166386767Y-85136846D01*
X166391749Y-85134523D01*
X166542197Y-85029178D01*
X166574789Y-85006357D01*
X166574792Y-85006355D01*
X166579300Y-85003198D01*
X166741198Y-84841300D01*
X166783396Y-84781036D01*
X166818081Y-84731500D01*
X166872523Y-84653749D01*
X166874846Y-84648767D01*
X166874849Y-84648762D01*
X166890805Y-84614543D01*
X166937722Y-84561258D01*
X167005999Y-84541797D01*
X167073959Y-84562339D01*
X167119195Y-84614543D01*
X167135151Y-84648762D01*
X167135154Y-84648767D01*
X167137477Y-84653749D01*
X167191919Y-84731500D01*
X167226605Y-84781036D01*
X167268802Y-84841300D01*
X167430700Y-85003198D01*
X167435208Y-85006355D01*
X167435211Y-85006357D01*
X167467803Y-85029178D01*
X167618251Y-85134523D01*
X167623233Y-85136846D01*
X167623238Y-85136849D01*
X167766643Y-85203719D01*
X167825757Y-85231284D01*
X167831065Y-85232706D01*
X167831067Y-85232707D01*
X168041598Y-85289119D01*
X168041600Y-85289119D01*
X168046913Y-85290543D01*
X168275000Y-85310498D01*
X168503087Y-85290543D01*
X168508400Y-85289119D01*
X168508402Y-85289119D01*
X168718933Y-85232707D01*
X168718935Y-85232706D01*
X168724243Y-85231284D01*
X168783357Y-85203719D01*
X168926762Y-85136849D01*
X168926767Y-85136846D01*
X168931749Y-85134523D01*
X169082197Y-85029178D01*
X169114789Y-85006357D01*
X169114792Y-85006355D01*
X169119300Y-85003198D01*
X169281198Y-84841300D01*
X169323396Y-84781036D01*
X169358081Y-84731500D01*
X169412523Y-84653749D01*
X169414846Y-84648767D01*
X169414849Y-84648762D01*
X169430805Y-84614543D01*
X169477722Y-84561258D01*
X169545999Y-84541797D01*
X169613959Y-84562339D01*
X169659195Y-84614543D01*
X169675151Y-84648762D01*
X169675154Y-84648767D01*
X169677477Y-84653749D01*
X169731919Y-84731500D01*
X169766605Y-84781036D01*
X169808802Y-84841300D01*
X169970700Y-85003198D01*
X169975208Y-85006355D01*
X169975211Y-85006357D01*
X170007803Y-85029178D01*
X170158251Y-85134523D01*
X170163233Y-85136846D01*
X170163238Y-85136849D01*
X170306643Y-85203719D01*
X170365757Y-85231284D01*
X170371065Y-85232706D01*
X170371067Y-85232707D01*
X170581598Y-85289119D01*
X170581600Y-85289119D01*
X170586913Y-85290543D01*
X170815000Y-85310498D01*
X171043087Y-85290543D01*
X171048400Y-85289119D01*
X171048402Y-85289119D01*
X171258933Y-85232707D01*
X171258935Y-85232706D01*
X171264243Y-85231284D01*
X171323357Y-85203719D01*
X171466762Y-85136849D01*
X171466767Y-85136846D01*
X171471749Y-85134523D01*
X171622197Y-85029178D01*
X171654789Y-85006357D01*
X171654792Y-85006355D01*
X171659300Y-85003198D01*
X171821198Y-84841300D01*
X171863396Y-84781036D01*
X171898081Y-84731500D01*
X171952523Y-84653749D01*
X171954846Y-84648767D01*
X171954849Y-84648762D01*
X171970805Y-84614543D01*
X172017722Y-84561258D01*
X172085999Y-84541797D01*
X172153959Y-84562339D01*
X172199195Y-84614543D01*
X172215151Y-84648762D01*
X172215154Y-84648767D01*
X172217477Y-84653749D01*
X172271919Y-84731500D01*
X172306605Y-84781036D01*
X172348802Y-84841300D01*
X172510700Y-85003198D01*
X172515208Y-85006355D01*
X172515211Y-85006357D01*
X172547803Y-85029178D01*
X172698251Y-85134523D01*
X172703233Y-85136846D01*
X172703238Y-85136849D01*
X172846643Y-85203719D01*
X172905757Y-85231284D01*
X172911065Y-85232706D01*
X172911067Y-85232707D01*
X173121598Y-85289119D01*
X173121600Y-85289119D01*
X173126913Y-85290543D01*
X173355000Y-85310498D01*
X173583087Y-85290543D01*
X173588400Y-85289119D01*
X173588402Y-85289119D01*
X173798933Y-85232707D01*
X173798935Y-85232706D01*
X173804243Y-85231284D01*
X173863357Y-85203719D01*
X174006762Y-85136849D01*
X174006767Y-85136846D01*
X174011749Y-85134523D01*
X174162197Y-85029178D01*
X174194789Y-85006357D01*
X174194792Y-85006355D01*
X174199300Y-85003198D01*
X174228133Y-84974365D01*
X174290445Y-84940339D01*
X174361260Y-84945404D01*
X174418096Y-84987951D01*
X174435210Y-85019232D01*
X174438840Y-85028913D01*
X174444385Y-85043705D01*
X174531739Y-85160261D01*
X174648295Y-85247615D01*
X174784684Y-85298745D01*
X174846866Y-85305500D01*
X176943134Y-85305500D01*
X177005316Y-85298745D01*
X177141705Y-85247615D01*
X177258261Y-85160261D01*
X177345615Y-85043705D01*
X177396745Y-84907316D01*
X177403500Y-84845134D01*
X177403500Y-82748866D01*
X177396745Y-82686684D01*
X177345615Y-82550295D01*
X177258261Y-82433739D01*
X177141705Y-82346385D01*
X177005316Y-82295255D01*
X176997463Y-82294402D01*
X176997459Y-82294401D01*
X176976043Y-82292075D01*
X176966015Y-82290986D01*
X176900453Y-82263745D01*
X176860026Y-82205383D01*
X176857570Y-82134429D01*
X176876409Y-82093453D01*
X176996328Y-81922190D01*
X176996331Y-81922184D01*
X176999488Y-81917676D01*
X177001811Y-81912694D01*
X177001814Y-81912689D01*
X177050805Y-81807627D01*
X177097723Y-81754342D01*
X177166000Y-81734881D01*
X177233960Y-81755423D01*
X177279195Y-81807627D01*
X177328186Y-81912689D01*
X177328189Y-81912694D01*
X177330512Y-81917676D01*
X177333668Y-81922183D01*
X177333669Y-81922185D01*
X177451818Y-82090919D01*
X177458023Y-82099781D01*
X177615219Y-82256977D01*
X177619727Y-82260134D01*
X177619730Y-82260136D01*
X177668666Y-82294401D01*
X177797323Y-82384488D01*
X177802305Y-82386811D01*
X177802310Y-82386814D01*
X177970183Y-82465094D01*
X177998804Y-82478440D01*
X178004112Y-82479862D01*
X178004114Y-82479863D01*
X178014284Y-82482588D01*
X178213537Y-82535978D01*
X178435000Y-82555353D01*
X178656463Y-82535978D01*
X178855716Y-82482588D01*
X178865886Y-82479863D01*
X178865888Y-82479862D01*
X178871196Y-82478440D01*
X178899817Y-82465094D01*
X179067690Y-82386814D01*
X179067695Y-82386811D01*
X179072677Y-82384488D01*
X179201334Y-82294401D01*
X179250270Y-82260136D01*
X179250273Y-82260134D01*
X179254781Y-82256977D01*
X179411977Y-82099781D01*
X179418183Y-82090919D01*
X179536331Y-81922185D01*
X179536332Y-81922183D01*
X179539488Y-81917676D01*
X179541811Y-81912694D01*
X179541814Y-81912689D01*
X179590805Y-81807627D01*
X179637723Y-81754342D01*
X179706000Y-81734881D01*
X179773960Y-81755423D01*
X179819195Y-81807627D01*
X179868186Y-81912689D01*
X179868189Y-81912694D01*
X179870512Y-81917676D01*
X179873668Y-81922183D01*
X179873669Y-81922185D01*
X179991818Y-82090919D01*
X179998023Y-82099781D01*
X180155219Y-82256977D01*
X180159727Y-82260134D01*
X180159730Y-82260136D01*
X180208666Y-82294401D01*
X180337323Y-82384488D01*
X180342305Y-82386811D01*
X180342310Y-82386814D01*
X180510183Y-82465094D01*
X180538804Y-82478440D01*
X180544112Y-82479862D01*
X180544114Y-82479863D01*
X180554284Y-82482588D01*
X180753537Y-82535978D01*
X180975000Y-82555353D01*
X181196463Y-82535978D01*
X181395716Y-82482588D01*
X181405886Y-82479863D01*
X181405888Y-82479862D01*
X181411196Y-82478440D01*
X181439817Y-82465094D01*
X181607690Y-82386814D01*
X181607695Y-82386811D01*
X181612677Y-82384488D01*
X181741334Y-82294401D01*
X181790270Y-82260136D01*
X181790273Y-82260134D01*
X181794781Y-82256977D01*
X181951977Y-82099781D01*
X181958183Y-82090919D01*
X182076331Y-81922185D01*
X182076332Y-81922183D01*
X182079488Y-81917676D01*
X182081811Y-81912694D01*
X182081814Y-81912689D01*
X182130805Y-81807627D01*
X182177723Y-81754342D01*
X182246000Y-81734881D01*
X182313960Y-81755423D01*
X182359195Y-81807627D01*
X182408186Y-81912689D01*
X182408189Y-81912694D01*
X182410512Y-81917676D01*
X182413668Y-81922183D01*
X182413669Y-81922185D01*
X182531818Y-82090919D01*
X182538023Y-82099781D01*
X182695219Y-82256977D01*
X182699727Y-82260134D01*
X182699730Y-82260136D01*
X182748666Y-82294401D01*
X182877323Y-82384488D01*
X182882305Y-82386811D01*
X182882310Y-82386814D01*
X183050183Y-82465094D01*
X183078804Y-82478440D01*
X183084112Y-82479862D01*
X183084114Y-82479863D01*
X183094284Y-82482588D01*
X183293537Y-82535978D01*
X183515000Y-82555353D01*
X183736463Y-82535978D01*
X183935716Y-82482588D01*
X183945886Y-82479863D01*
X183945888Y-82479862D01*
X183951196Y-82478440D01*
X183979817Y-82465094D01*
X184147690Y-82386814D01*
X184147695Y-82386811D01*
X184152677Y-82384488D01*
X184281334Y-82294401D01*
X184330270Y-82260136D01*
X184330273Y-82260134D01*
X184334781Y-82256977D01*
X184491977Y-82099781D01*
X184498183Y-82090919D01*
X184616331Y-81922185D01*
X184616332Y-81922183D01*
X184619488Y-81917676D01*
X184621811Y-81912694D01*
X184621814Y-81912689D01*
X184670805Y-81807627D01*
X184717723Y-81754342D01*
X184786000Y-81734881D01*
X184853960Y-81755423D01*
X184899195Y-81807627D01*
X184948186Y-81912689D01*
X184948189Y-81912694D01*
X184950512Y-81917676D01*
X184953668Y-81922183D01*
X184953669Y-81922185D01*
X185071818Y-82090919D01*
X185078023Y-82099781D01*
X185235219Y-82256977D01*
X185239727Y-82260134D01*
X185239730Y-82260136D01*
X185288666Y-82294401D01*
X185417323Y-82384488D01*
X185422305Y-82386811D01*
X185422310Y-82386814D01*
X185590183Y-82465094D01*
X185618804Y-82478440D01*
X185624112Y-82479862D01*
X185624114Y-82479863D01*
X185634284Y-82482588D01*
X185833537Y-82535978D01*
X186055000Y-82555353D01*
X186276463Y-82535978D01*
X186475716Y-82482588D01*
X186485886Y-82479863D01*
X186485888Y-82479862D01*
X186491196Y-82478440D01*
X186519817Y-82465094D01*
X186687690Y-82386814D01*
X186687695Y-82386811D01*
X186692677Y-82384488D01*
X186821334Y-82294401D01*
X186870270Y-82260136D01*
X186870273Y-82260134D01*
X186874781Y-82256977D01*
X187031977Y-82099781D01*
X187038183Y-82090919D01*
X187156331Y-81922185D01*
X187156332Y-81922183D01*
X187159488Y-81917676D01*
X187161811Y-81912694D01*
X187161814Y-81912689D01*
X187210805Y-81807627D01*
X187257723Y-81754342D01*
X187326000Y-81734881D01*
X187393960Y-81755423D01*
X187439195Y-81807627D01*
X187488186Y-81912689D01*
X187488189Y-81912694D01*
X187490512Y-81917676D01*
X187493668Y-81922183D01*
X187493669Y-81922185D01*
X187611818Y-82090919D01*
X187618023Y-82099781D01*
X187775219Y-82256977D01*
X187779727Y-82260134D01*
X187779730Y-82260136D01*
X187828666Y-82294401D01*
X187957323Y-82384488D01*
X187962305Y-82386811D01*
X187962310Y-82386814D01*
X188130183Y-82465094D01*
X188158804Y-82478440D01*
X188164112Y-82479862D01*
X188164114Y-82479863D01*
X188174284Y-82482588D01*
X188373537Y-82535978D01*
X188595000Y-82555353D01*
X188816463Y-82535978D01*
X189015716Y-82482588D01*
X189025886Y-82479863D01*
X189025888Y-82479862D01*
X189031196Y-82478440D01*
X189059817Y-82465094D01*
X189227690Y-82386814D01*
X189227695Y-82386811D01*
X189232677Y-82384488D01*
X189361334Y-82294401D01*
X189410270Y-82260136D01*
X189410273Y-82260134D01*
X189414781Y-82256977D01*
X189571977Y-82099781D01*
X189578183Y-82090919D01*
X189696331Y-81922185D01*
X189696332Y-81922183D01*
X189699488Y-81917676D01*
X189701811Y-81912694D01*
X189701814Y-81912689D01*
X189750805Y-81807627D01*
X189797723Y-81754342D01*
X189866000Y-81734881D01*
X189933960Y-81755423D01*
X189979195Y-81807627D01*
X190028186Y-81912689D01*
X190028189Y-81912694D01*
X190030512Y-81917676D01*
X190033668Y-81922183D01*
X190033669Y-81922185D01*
X190151818Y-82090919D01*
X190158023Y-82099781D01*
X190315219Y-82256977D01*
X190319727Y-82260134D01*
X190319730Y-82260136D01*
X190368666Y-82294401D01*
X190497323Y-82384488D01*
X190502305Y-82386811D01*
X190502310Y-82386814D01*
X190670183Y-82465094D01*
X190698804Y-82478440D01*
X190704112Y-82479862D01*
X190704114Y-82479863D01*
X190714284Y-82482588D01*
X190913537Y-82535978D01*
X191135000Y-82555353D01*
X191356463Y-82535978D01*
X191555716Y-82482588D01*
X191565886Y-82479863D01*
X191565888Y-82479862D01*
X191571196Y-82478440D01*
X191599817Y-82465094D01*
X191767690Y-82386814D01*
X191767695Y-82386811D01*
X191772677Y-82384488D01*
X191901334Y-82294401D01*
X191950270Y-82260136D01*
X191950273Y-82260134D01*
X191954781Y-82256977D01*
X192111977Y-82099781D01*
X192118183Y-82090919D01*
X192236331Y-81922185D01*
X192236332Y-81922183D01*
X192239488Y-81917676D01*
X192241811Y-81912694D01*
X192241814Y-81912689D01*
X192290805Y-81807627D01*
X192337723Y-81754342D01*
X192406000Y-81734881D01*
X192473960Y-81755423D01*
X192519195Y-81807627D01*
X192568186Y-81912689D01*
X192568189Y-81912694D01*
X192570512Y-81917676D01*
X192573668Y-81922183D01*
X192573669Y-81922185D01*
X192691818Y-82090919D01*
X192698023Y-82099781D01*
X192855219Y-82256977D01*
X192859727Y-82260134D01*
X192859730Y-82260136D01*
X192908666Y-82294401D01*
X193037323Y-82384488D01*
X193042305Y-82386811D01*
X193042310Y-82386814D01*
X193210183Y-82465094D01*
X193238804Y-82478440D01*
X193244112Y-82479862D01*
X193244114Y-82479863D01*
X193254284Y-82482588D01*
X193453537Y-82535978D01*
X193675000Y-82555353D01*
X193896463Y-82535978D01*
X194095716Y-82482588D01*
X194105886Y-82479863D01*
X194105888Y-82479862D01*
X194111196Y-82478440D01*
X194139817Y-82465094D01*
X194307690Y-82386814D01*
X194307695Y-82386811D01*
X194312677Y-82384488D01*
X194441334Y-82294401D01*
X194490270Y-82260136D01*
X194490273Y-82260134D01*
X194494781Y-82256977D01*
X194651977Y-82099781D01*
X194658183Y-82090919D01*
X194776331Y-81922185D01*
X194776332Y-81922183D01*
X194779488Y-81917676D01*
X194781811Y-81912694D01*
X194781814Y-81912689D01*
X194871117Y-81721178D01*
X194871118Y-81721177D01*
X194873440Y-81716196D01*
X194930978Y-81501463D01*
X194950353Y-81280000D01*
X194930978Y-81058537D01*
X194873440Y-80843804D01*
X194862411Y-80820152D01*
X194781814Y-80647311D01*
X194781811Y-80647306D01*
X194779488Y-80642324D01*
X194773009Y-80633070D01*
X194684573Y-80506771D01*
X194661885Y-80439497D01*
X194679170Y-80370636D01*
X194730940Y-80322052D01*
X194787786Y-80308500D01*
X201652489Y-80308500D01*
X201720610Y-80328502D01*
X201767103Y-80382158D01*
X201777207Y-80452432D01*
X201747713Y-80517012D01*
X201716912Y-80542785D01*
X201596659Y-80614328D01*
X201593658Y-80616643D01*
X201593654Y-80616646D01*
X201565885Y-80638070D01*
X201333316Y-80817496D01*
X201096288Y-81050829D01*
X200889009Y-81310949D01*
X200714481Y-81594086D01*
X200575232Y-81896140D01*
X200574073Y-81899740D01*
X200574070Y-81899747D01*
X200474578Y-82208703D01*
X200473280Y-82212735D01*
X200472561Y-82216451D01*
X200472559Y-82216459D01*
X200414118Y-82518518D01*
X200410100Y-82539285D01*
X200409833Y-82543061D01*
X200409832Y-82543066D01*
X200386878Y-82867272D01*
X200386610Y-82871061D01*
X200387549Y-82889921D01*
X200402742Y-83195110D01*
X200403147Y-83203255D01*
X200403788Y-83206986D01*
X200403789Y-83206994D01*
X200438663Y-83409944D01*
X200459474Y-83531057D01*
X200460562Y-83534696D01*
X200460563Y-83534699D01*
X200502157Y-83673778D01*
X200554774Y-83849718D01*
X200556287Y-83853189D01*
X200556289Y-83853195D01*
X200602758Y-83959812D01*
X200687666Y-84154622D01*
X200689589Y-84157893D01*
X200689591Y-84157897D01*
X200716382Y-84203470D01*
X200856226Y-84441352D01*
X200858527Y-84444367D01*
X201055712Y-84702742D01*
X201055717Y-84702748D01*
X201058012Y-84705755D01*
X201060656Y-84708469D01*
X201286534Y-84940339D01*
X201290102Y-84944002D01*
X201549132Y-85152640D01*
X201631035Y-85203719D01*
X201793644Y-85305131D01*
X201831352Y-85328648D01*
X202132672Y-85469476D01*
X202136281Y-85470659D01*
X202295391Y-85522818D01*
X202448729Y-85573085D01*
X202774944Y-85637973D01*
X202778716Y-85638260D01*
X202778724Y-85638261D01*
X203102815Y-85662914D01*
X203102820Y-85662914D01*
X203106592Y-85663201D01*
X203438869Y-85648403D01*
X203443401Y-85647649D01*
X203763220Y-85594417D01*
X203763225Y-85594416D01*
X203766961Y-85593794D01*
X204086116Y-85500164D01*
X204089583Y-85498674D01*
X204089587Y-85498673D01*
X204388228Y-85370366D01*
X204388230Y-85370365D01*
X204391712Y-85368869D01*
X204679321Y-85201813D01*
X204682343Y-85199532D01*
X204682347Y-85199529D01*
X204941753Y-85003697D01*
X204941754Y-85003696D01*
X204944777Y-85001414D01*
X204947502Y-84998787D01*
X204947508Y-84998782D01*
X205002878Y-84945404D01*
X205018053Y-84930775D01*
X205080977Y-84897898D01*
X205151688Y-84904260D01*
X205207735Y-84947841D01*
X205231500Y-85021489D01*
X205231500Y-105329093D01*
X205211498Y-105397214D01*
X205157842Y-105443707D01*
X205087568Y-105453811D01*
X205027494Y-105428043D01*
X205017485Y-105420152D01*
X204777191Y-105230720D01*
X204493144Y-105057677D01*
X204369522Y-105001469D01*
X204193817Y-104921580D01*
X204193809Y-104921577D01*
X204190365Y-104920011D01*
X203873240Y-104819718D01*
X203650896Y-104777906D01*
X203550087Y-104758949D01*
X203550085Y-104758949D01*
X203546364Y-104758249D01*
X203214470Y-104736496D01*
X203210690Y-104736704D01*
X203210689Y-104736704D01*
X203112918Y-104742085D01*
X202882366Y-104754773D01*
X202878639Y-104755434D01*
X202878635Y-104755434D01*
X202632200Y-104799109D01*
X202554864Y-104812815D01*
X202551239Y-104813920D01*
X202551234Y-104813921D01*
X202343683Y-104877178D01*
X202236707Y-104909782D01*
X202233243Y-104911313D01*
X202233236Y-104911316D01*
X202110675Y-104965500D01*
X201932503Y-105044269D01*
X201929249Y-105046205D01*
X201929243Y-105046208D01*
X201711745Y-105175606D01*
X201646659Y-105214328D01*
X201643658Y-105216643D01*
X201643654Y-105216646D01*
X201557756Y-105282916D01*
X201383316Y-105417496D01*
X201380617Y-105420152D01*
X201380618Y-105420152D01*
X201188980Y-105608803D01*
X201146288Y-105650829D01*
X200939009Y-105910949D01*
X200764481Y-106194086D01*
X200625232Y-106496140D01*
X200624073Y-106499740D01*
X200624070Y-106499747D01*
X200525668Y-106805320D01*
X200523280Y-106812735D01*
X200522561Y-106816451D01*
X200522559Y-106816459D01*
X200460819Y-107135567D01*
X200460100Y-107139285D01*
X200459833Y-107143061D01*
X200459832Y-107143066D01*
X200436878Y-107467272D01*
X200436610Y-107471061D01*
X200441720Y-107573713D01*
X200451870Y-107777594D01*
X200453147Y-107803255D01*
X200453788Y-107806986D01*
X200453789Y-107806994D01*
X200507420Y-108119103D01*
X200509474Y-108131057D01*
X200510562Y-108134696D01*
X200510563Y-108134699D01*
X200602212Y-108441150D01*
X200604774Y-108449718D01*
X200606287Y-108453189D01*
X200606289Y-108453195D01*
X200652462Y-108559132D01*
X200737666Y-108754622D01*
X200906226Y-109041352D01*
X200908527Y-109044367D01*
X201105712Y-109302742D01*
X201105717Y-109302748D01*
X201108012Y-109305755D01*
X201110656Y-109308469D01*
X201287608Y-109490115D01*
X201340102Y-109544002D01*
X201599132Y-109752640D01*
X201881352Y-109928648D01*
X201884795Y-109930257D01*
X201929930Y-109951352D01*
X201983174Y-109998315D01*
X202002575Y-110066610D01*
X201981974Y-110134552D01*
X201927911Y-110180570D01*
X201876580Y-110191500D01*
X194787786Y-110191500D01*
X194719665Y-110171498D01*
X194673172Y-110117842D01*
X194663068Y-110047568D01*
X194684573Y-109993229D01*
X194776331Y-109862185D01*
X194776332Y-109862183D01*
X194779488Y-109857676D01*
X194781811Y-109852694D01*
X194781814Y-109852689D01*
X194871117Y-109661178D01*
X194871118Y-109661177D01*
X194873440Y-109656196D01*
X194930978Y-109441463D01*
X194950353Y-109220000D01*
X194930978Y-108998537D01*
X194873440Y-108783804D01*
X194864727Y-108765119D01*
X194781814Y-108587311D01*
X194781811Y-108587306D01*
X194779488Y-108582324D01*
X194763249Y-108559132D01*
X194655136Y-108404730D01*
X194655134Y-108404727D01*
X194651977Y-108400219D01*
X194494781Y-108243023D01*
X194490273Y-108239866D01*
X194490270Y-108239864D01*
X194402706Y-108178551D01*
X194312677Y-108115512D01*
X194307695Y-108113189D01*
X194307690Y-108113186D01*
X194116178Y-108023883D01*
X194116177Y-108023882D01*
X194111196Y-108021560D01*
X194105888Y-108020138D01*
X194105886Y-108020137D01*
X194010293Y-107994523D01*
X193896463Y-107964022D01*
X193675000Y-107944647D01*
X193453537Y-107964022D01*
X193339707Y-107994523D01*
X193244114Y-108020137D01*
X193244112Y-108020138D01*
X193238804Y-108021560D01*
X193233823Y-108023882D01*
X193233822Y-108023883D01*
X193042311Y-108113186D01*
X193042306Y-108113189D01*
X193037324Y-108115512D01*
X193032817Y-108118668D01*
X193032815Y-108118669D01*
X192859730Y-108239864D01*
X192859727Y-108239866D01*
X192855219Y-108243023D01*
X192698023Y-108400219D01*
X192694866Y-108404727D01*
X192694864Y-108404730D01*
X192586751Y-108559132D01*
X192570512Y-108582324D01*
X192568189Y-108587306D01*
X192568186Y-108587311D01*
X192519195Y-108692373D01*
X192472277Y-108745658D01*
X192404000Y-108765119D01*
X192336040Y-108744577D01*
X192290805Y-108692373D01*
X192241814Y-108587311D01*
X192241811Y-108587306D01*
X192239488Y-108582324D01*
X192223249Y-108559132D01*
X192115136Y-108404730D01*
X192115134Y-108404727D01*
X192111977Y-108400219D01*
X191954781Y-108243023D01*
X191950273Y-108239866D01*
X191950270Y-108239864D01*
X191862706Y-108178551D01*
X191772677Y-108115512D01*
X191767695Y-108113189D01*
X191767690Y-108113186D01*
X191576178Y-108023883D01*
X191576177Y-108023882D01*
X191571196Y-108021560D01*
X191565888Y-108020138D01*
X191565886Y-108020137D01*
X191470293Y-107994523D01*
X191356463Y-107964022D01*
X191135000Y-107944647D01*
X190913537Y-107964022D01*
X190799707Y-107994523D01*
X190704114Y-108020137D01*
X190704112Y-108020138D01*
X190698804Y-108021560D01*
X190693823Y-108023882D01*
X190693822Y-108023883D01*
X190502311Y-108113186D01*
X190502306Y-108113189D01*
X190497324Y-108115512D01*
X190492817Y-108118668D01*
X190492815Y-108118669D01*
X190319730Y-108239864D01*
X190319727Y-108239866D01*
X190315219Y-108243023D01*
X190158023Y-108400219D01*
X190154866Y-108404727D01*
X190154864Y-108404730D01*
X190046751Y-108559132D01*
X190030512Y-108582324D01*
X190028189Y-108587306D01*
X190028186Y-108587311D01*
X189979195Y-108692373D01*
X189932277Y-108745658D01*
X189864000Y-108765119D01*
X189796040Y-108744577D01*
X189750805Y-108692373D01*
X189701814Y-108587311D01*
X189701811Y-108587306D01*
X189699488Y-108582324D01*
X189683249Y-108559132D01*
X189575136Y-108404730D01*
X189575134Y-108404727D01*
X189571977Y-108400219D01*
X189414781Y-108243023D01*
X189410273Y-108239866D01*
X189410270Y-108239864D01*
X189322706Y-108178551D01*
X189232677Y-108115512D01*
X189227695Y-108113189D01*
X189227690Y-108113186D01*
X189036178Y-108023883D01*
X189036177Y-108023882D01*
X189031196Y-108021560D01*
X189025888Y-108020138D01*
X189025886Y-108020137D01*
X188930293Y-107994523D01*
X188816463Y-107964022D01*
X188595000Y-107944647D01*
X188373537Y-107964022D01*
X188259707Y-107994523D01*
X188164114Y-108020137D01*
X188164112Y-108020138D01*
X188158804Y-108021560D01*
X188153823Y-108023882D01*
X188153822Y-108023883D01*
X187962311Y-108113186D01*
X187962306Y-108113189D01*
X187957324Y-108115512D01*
X187952817Y-108118668D01*
X187952815Y-108118669D01*
X187779730Y-108239864D01*
X187779727Y-108239866D01*
X187775219Y-108243023D01*
X187618023Y-108400219D01*
X187614866Y-108404727D01*
X187614864Y-108404730D01*
X187506751Y-108559132D01*
X187490512Y-108582324D01*
X187488189Y-108587306D01*
X187488186Y-108587311D01*
X187439195Y-108692373D01*
X187392277Y-108745658D01*
X187324000Y-108765119D01*
X187256040Y-108744577D01*
X187210805Y-108692373D01*
X187161814Y-108587311D01*
X187161811Y-108587306D01*
X187159488Y-108582324D01*
X187143249Y-108559132D01*
X187035136Y-108404730D01*
X187035134Y-108404727D01*
X187031977Y-108400219D01*
X186874781Y-108243023D01*
X186870273Y-108239866D01*
X186870270Y-108239864D01*
X186782706Y-108178551D01*
X186692677Y-108115512D01*
X186687695Y-108113189D01*
X186687690Y-108113186D01*
X186496178Y-108023883D01*
X186496177Y-108023882D01*
X186491196Y-108021560D01*
X186485888Y-108020138D01*
X186485886Y-108020137D01*
X186390293Y-107994523D01*
X186276463Y-107964022D01*
X186055000Y-107944647D01*
X185833537Y-107964022D01*
X185719707Y-107994523D01*
X185624114Y-108020137D01*
X185624112Y-108020138D01*
X185618804Y-108021560D01*
X185613823Y-108023882D01*
X185613822Y-108023883D01*
X185422311Y-108113186D01*
X185422306Y-108113189D01*
X185417324Y-108115512D01*
X185412817Y-108118668D01*
X185412815Y-108118669D01*
X185239730Y-108239864D01*
X185239727Y-108239866D01*
X185235219Y-108243023D01*
X185078023Y-108400219D01*
X185074866Y-108404727D01*
X185074864Y-108404730D01*
X184966751Y-108559132D01*
X184950512Y-108582324D01*
X184948189Y-108587306D01*
X184948186Y-108587311D01*
X184899195Y-108692373D01*
X184852277Y-108745658D01*
X184784000Y-108765119D01*
X184716040Y-108744577D01*
X184670805Y-108692373D01*
X184621814Y-108587311D01*
X184621811Y-108587306D01*
X184619488Y-108582324D01*
X184603249Y-108559132D01*
X184495136Y-108404730D01*
X184495134Y-108404727D01*
X184491977Y-108400219D01*
X184334781Y-108243023D01*
X184330273Y-108239866D01*
X184330270Y-108239864D01*
X184242706Y-108178551D01*
X184152677Y-108115512D01*
X184147695Y-108113189D01*
X184147690Y-108113186D01*
X183956178Y-108023883D01*
X183956177Y-108023882D01*
X183951196Y-108021560D01*
X183945888Y-108020138D01*
X183945886Y-108020137D01*
X183850293Y-107994523D01*
X183736463Y-107964022D01*
X183515000Y-107944647D01*
X183293537Y-107964022D01*
X183179707Y-107994523D01*
X183084114Y-108020137D01*
X183084112Y-108020138D01*
X183078804Y-108021560D01*
X183073823Y-108023882D01*
X183073822Y-108023883D01*
X182882311Y-108113186D01*
X182882306Y-108113189D01*
X182877324Y-108115512D01*
X182872817Y-108118668D01*
X182872815Y-108118669D01*
X182699730Y-108239864D01*
X182699727Y-108239866D01*
X182695219Y-108243023D01*
X182538023Y-108400219D01*
X182534866Y-108404727D01*
X182534864Y-108404730D01*
X182426751Y-108559132D01*
X182410512Y-108582324D01*
X182408189Y-108587306D01*
X182408186Y-108587311D01*
X182359195Y-108692373D01*
X182312277Y-108745658D01*
X182244000Y-108765119D01*
X182176040Y-108744577D01*
X182130805Y-108692373D01*
X182081814Y-108587311D01*
X182081811Y-108587306D01*
X182079488Y-108582324D01*
X182063249Y-108559132D01*
X181955136Y-108404730D01*
X181955134Y-108404727D01*
X181951977Y-108400219D01*
X181794781Y-108243023D01*
X181790273Y-108239866D01*
X181790270Y-108239864D01*
X181702706Y-108178551D01*
X181612677Y-108115512D01*
X181607695Y-108113189D01*
X181607690Y-108113186D01*
X181416178Y-108023883D01*
X181416177Y-108023882D01*
X181411196Y-108021560D01*
X181405888Y-108020138D01*
X181405886Y-108020137D01*
X181310293Y-107994523D01*
X181196463Y-107964022D01*
X180975000Y-107944647D01*
X180753537Y-107964022D01*
X180639707Y-107994523D01*
X180544114Y-108020137D01*
X180544112Y-108020138D01*
X180538804Y-108021560D01*
X180533823Y-108023882D01*
X180533822Y-108023883D01*
X180342311Y-108113186D01*
X180342306Y-108113189D01*
X180337324Y-108115512D01*
X180332817Y-108118668D01*
X180332815Y-108118669D01*
X180159730Y-108239864D01*
X180159727Y-108239866D01*
X180155219Y-108243023D01*
X179998023Y-108400219D01*
X179994866Y-108404727D01*
X179994864Y-108404730D01*
X179886751Y-108559132D01*
X179870512Y-108582324D01*
X179868189Y-108587306D01*
X179868186Y-108587311D01*
X179818919Y-108692965D01*
X179772001Y-108746250D01*
X179703724Y-108765711D01*
X179635764Y-108745169D01*
X179590529Y-108692965D01*
X179541377Y-108587559D01*
X179535897Y-108578068D01*
X179505206Y-108534235D01*
X179494729Y-108525860D01*
X179481282Y-108532928D01*
X178524095Y-109490115D01*
X178461783Y-109524141D01*
X178390968Y-109519076D01*
X178345905Y-109490115D01*
X177387997Y-108532207D01*
X177376223Y-108525777D01*
X177364207Y-108535074D01*
X177334103Y-108578068D01*
X177328623Y-108587559D01*
X177279471Y-108692965D01*
X177232553Y-108746250D01*
X177164276Y-108765711D01*
X177096316Y-108745169D01*
X177051081Y-108692965D01*
X177001814Y-108587311D01*
X177001811Y-108587306D01*
X176999488Y-108582324D01*
X176983249Y-108559132D01*
X176875136Y-108404730D01*
X176875134Y-108404727D01*
X176871977Y-108400219D01*
X176714781Y-108243023D01*
X176710273Y-108239866D01*
X176710270Y-108239864D01*
X176623277Y-108178951D01*
X176603220Y-108164907D01*
X176599514Y-108160271D01*
X177740860Y-108160271D01*
X177747928Y-108173718D01*
X178422188Y-108847978D01*
X178436132Y-108855592D01*
X178437965Y-108855461D01*
X178444580Y-108851210D01*
X179122793Y-108172997D01*
X179129223Y-108161223D01*
X179119926Y-108149207D01*
X179076931Y-108119102D01*
X179067445Y-108113624D01*
X178876007Y-108024355D01*
X178865715Y-108020609D01*
X178661691Y-107965941D01*
X178650896Y-107964038D01*
X178440475Y-107945628D01*
X178429525Y-107945628D01*
X178219104Y-107964038D01*
X178208309Y-107965941D01*
X178004285Y-108020609D01*
X177993993Y-108024355D01*
X177802559Y-108113623D01*
X177793068Y-108119103D01*
X177749235Y-108149794D01*
X177740860Y-108160271D01*
X176599514Y-108160271D01*
X176558893Y-108109451D01*
X176551584Y-108038832D01*
X176583615Y-107975471D01*
X176603221Y-107958482D01*
X176734789Y-107866357D01*
X176734792Y-107866355D01*
X176739300Y-107863198D01*
X176901198Y-107701300D01*
X176949917Y-107631723D01*
X176985378Y-107581079D01*
X177032523Y-107513749D01*
X177034846Y-107508767D01*
X177034849Y-107508762D01*
X177126961Y-107311225D01*
X177126961Y-107311224D01*
X177129284Y-107306243D01*
X177173008Y-107143066D01*
X177187119Y-107090402D01*
X177187119Y-107090400D01*
X177188543Y-107085087D01*
X177202830Y-106921790D01*
X177203262Y-106916851D01*
X177203262Y-106916844D01*
X177203500Y-106914127D01*
X177203500Y-106399873D01*
X177188543Y-106228913D01*
X177129284Y-106007757D01*
X177034966Y-105805489D01*
X177034849Y-105805238D01*
X177034846Y-105805233D01*
X177032523Y-105800251D01*
X176959098Y-105695389D01*
X176904357Y-105617211D01*
X176904355Y-105617208D01*
X176901198Y-105612700D01*
X176739300Y-105450802D01*
X176734792Y-105447645D01*
X176734789Y-105447643D01*
X176578822Y-105338434D01*
X176551749Y-105319477D01*
X176546767Y-105317154D01*
X176546762Y-105317151D01*
X176349225Y-105225039D01*
X176349224Y-105225039D01*
X176344243Y-105222716D01*
X176338935Y-105221294D01*
X176338933Y-105221293D01*
X176128402Y-105164881D01*
X176128400Y-105164881D01*
X176123087Y-105163457D01*
X175895000Y-105143502D01*
X175666913Y-105163457D01*
X175661600Y-105164881D01*
X175661598Y-105164881D01*
X175451067Y-105221293D01*
X175451065Y-105221294D01*
X175445757Y-105222716D01*
X175440776Y-105225039D01*
X175440775Y-105225039D01*
X175243238Y-105317151D01*
X175243233Y-105317154D01*
X175238251Y-105319477D01*
X175211178Y-105338434D01*
X175055211Y-105447643D01*
X175055208Y-105447645D01*
X175050700Y-105450802D01*
X174888802Y-105612700D01*
X174885645Y-105617208D01*
X174885643Y-105617211D01*
X174830902Y-105695389D01*
X174757477Y-105800251D01*
X174755154Y-105805233D01*
X174755151Y-105805238D01*
X174739195Y-105839457D01*
X174692278Y-105892742D01*
X174624001Y-105912203D01*
X174556041Y-105891661D01*
X174510805Y-105839457D01*
X174494849Y-105805238D01*
X174494846Y-105805233D01*
X174492523Y-105800251D01*
X174419098Y-105695389D01*
X174364357Y-105617211D01*
X174364355Y-105617208D01*
X174361198Y-105612700D01*
X174199300Y-105450802D01*
X174194792Y-105447645D01*
X174194789Y-105447643D01*
X174038822Y-105338434D01*
X174011749Y-105319477D01*
X174006767Y-105317154D01*
X174006762Y-105317151D01*
X173809225Y-105225039D01*
X173809224Y-105225039D01*
X173804243Y-105222716D01*
X173798935Y-105221294D01*
X173798933Y-105221293D01*
X173588402Y-105164881D01*
X173588400Y-105164881D01*
X173583087Y-105163457D01*
X173355000Y-105143502D01*
X173126913Y-105163457D01*
X173121600Y-105164881D01*
X173121598Y-105164881D01*
X172911067Y-105221293D01*
X172911065Y-105221294D01*
X172905757Y-105222716D01*
X172900776Y-105225039D01*
X172900775Y-105225039D01*
X172703238Y-105317151D01*
X172703233Y-105317154D01*
X172698251Y-105319477D01*
X172671178Y-105338434D01*
X172515211Y-105447643D01*
X172515208Y-105447645D01*
X172510700Y-105450802D01*
X172348802Y-105612700D01*
X172345645Y-105617208D01*
X172345643Y-105617211D01*
X172290902Y-105695389D01*
X172217477Y-105800251D01*
X172215154Y-105805233D01*
X172215151Y-105805238D01*
X172199195Y-105839457D01*
X172152278Y-105892742D01*
X172084001Y-105912203D01*
X172016041Y-105891661D01*
X171970805Y-105839457D01*
X171954849Y-105805238D01*
X171954846Y-105805233D01*
X171952523Y-105800251D01*
X171879098Y-105695389D01*
X171824357Y-105617211D01*
X171824355Y-105617208D01*
X171821198Y-105612700D01*
X171659300Y-105450802D01*
X171654792Y-105447645D01*
X171654789Y-105447643D01*
X171498822Y-105338434D01*
X171471749Y-105319477D01*
X171466767Y-105317154D01*
X171466762Y-105317151D01*
X171269225Y-105225039D01*
X171269224Y-105225039D01*
X171264243Y-105222716D01*
X171258935Y-105221294D01*
X171258933Y-105221293D01*
X171048402Y-105164881D01*
X171048400Y-105164881D01*
X171043087Y-105163457D01*
X170815000Y-105143502D01*
X170586913Y-105163457D01*
X170581600Y-105164881D01*
X170581598Y-105164881D01*
X170371067Y-105221293D01*
X170371065Y-105221294D01*
X170365757Y-105222716D01*
X170360776Y-105225039D01*
X170360775Y-105225039D01*
X170163238Y-105317151D01*
X170163233Y-105317154D01*
X170158251Y-105319477D01*
X170131178Y-105338434D01*
X169975211Y-105447643D01*
X169975208Y-105447645D01*
X169970700Y-105450802D01*
X169808802Y-105612700D01*
X169805645Y-105617208D01*
X169805643Y-105617211D01*
X169750902Y-105695389D01*
X169677477Y-105800251D01*
X169675154Y-105805233D01*
X169675151Y-105805238D01*
X169659195Y-105839457D01*
X169612278Y-105892742D01*
X169544001Y-105912203D01*
X169476041Y-105891661D01*
X169430805Y-105839457D01*
X169414849Y-105805238D01*
X169414846Y-105805233D01*
X169412523Y-105800251D01*
X169339098Y-105695389D01*
X169284357Y-105617211D01*
X169284355Y-105617208D01*
X169281198Y-105612700D01*
X169119300Y-105450802D01*
X169114792Y-105447645D01*
X169114789Y-105447643D01*
X168958822Y-105338434D01*
X168931749Y-105319477D01*
X168926767Y-105317154D01*
X168926762Y-105317151D01*
X168729225Y-105225039D01*
X168729224Y-105225039D01*
X168724243Y-105222716D01*
X168718935Y-105221294D01*
X168718933Y-105221293D01*
X168508402Y-105164881D01*
X168508400Y-105164881D01*
X168503087Y-105163457D01*
X168275000Y-105143502D01*
X168046913Y-105163457D01*
X168041600Y-105164881D01*
X168041598Y-105164881D01*
X167831067Y-105221293D01*
X167831065Y-105221294D01*
X167825757Y-105222716D01*
X167820776Y-105225039D01*
X167820775Y-105225039D01*
X167623238Y-105317151D01*
X167623233Y-105317154D01*
X167618251Y-105319477D01*
X167591178Y-105338434D01*
X167435211Y-105447643D01*
X167435208Y-105447645D01*
X167430700Y-105450802D01*
X167268802Y-105612700D01*
X167265645Y-105617208D01*
X167265643Y-105617211D01*
X167210902Y-105695389D01*
X167137477Y-105800251D01*
X167135154Y-105805233D01*
X167135151Y-105805238D01*
X167119195Y-105839457D01*
X167072278Y-105892742D01*
X167004001Y-105912203D01*
X166936041Y-105891661D01*
X166890805Y-105839457D01*
X166874849Y-105805238D01*
X166874846Y-105805233D01*
X166872523Y-105800251D01*
X166799098Y-105695389D01*
X166744357Y-105617211D01*
X166744355Y-105617208D01*
X166741198Y-105612700D01*
X166579300Y-105450802D01*
X166574792Y-105447645D01*
X166574789Y-105447643D01*
X166418822Y-105338434D01*
X166391749Y-105319477D01*
X166386767Y-105317154D01*
X166386762Y-105317151D01*
X166189225Y-105225039D01*
X166189224Y-105225039D01*
X166184243Y-105222716D01*
X166178935Y-105221294D01*
X166178933Y-105221293D01*
X165968402Y-105164881D01*
X165968400Y-105164881D01*
X165963087Y-105163457D01*
X165735000Y-105143502D01*
X165506913Y-105163457D01*
X165501600Y-105164881D01*
X165501598Y-105164881D01*
X165291067Y-105221293D01*
X165291065Y-105221294D01*
X165285757Y-105222716D01*
X165280776Y-105225039D01*
X165280775Y-105225039D01*
X165083238Y-105317151D01*
X165083233Y-105317154D01*
X165078251Y-105319477D01*
X165051178Y-105338434D01*
X164895211Y-105447643D01*
X164895208Y-105447645D01*
X164890700Y-105450802D01*
X164728802Y-105612700D01*
X164725645Y-105617208D01*
X164725643Y-105617211D01*
X164670902Y-105695389D01*
X164597477Y-105800251D01*
X164595154Y-105805233D01*
X164595151Y-105805238D01*
X164579195Y-105839457D01*
X164532278Y-105892742D01*
X164464001Y-105912203D01*
X164396041Y-105891661D01*
X164350805Y-105839457D01*
X164334849Y-105805238D01*
X164334846Y-105805233D01*
X164332523Y-105800251D01*
X164259098Y-105695389D01*
X164204357Y-105617211D01*
X164204355Y-105617208D01*
X164201198Y-105612700D01*
X164039300Y-105450802D01*
X164034792Y-105447645D01*
X164034789Y-105447643D01*
X163878822Y-105338434D01*
X163851749Y-105319477D01*
X163846767Y-105317154D01*
X163846762Y-105317151D01*
X163649225Y-105225039D01*
X163649224Y-105225039D01*
X163644243Y-105222716D01*
X163638935Y-105221294D01*
X163638933Y-105221293D01*
X163428402Y-105164881D01*
X163428400Y-105164881D01*
X163423087Y-105163457D01*
X163195000Y-105143502D01*
X162966913Y-105163457D01*
X162961600Y-105164881D01*
X162961598Y-105164881D01*
X162751067Y-105221293D01*
X162751065Y-105221294D01*
X162745757Y-105222716D01*
X162740776Y-105225039D01*
X162740775Y-105225039D01*
X162543238Y-105317151D01*
X162543233Y-105317154D01*
X162538251Y-105319477D01*
X162511178Y-105338434D01*
X162355211Y-105447643D01*
X162355208Y-105447645D01*
X162350700Y-105450802D01*
X162188802Y-105612700D01*
X162185645Y-105617208D01*
X162185643Y-105617211D01*
X162130902Y-105695389D01*
X162057477Y-105800251D01*
X162055154Y-105805233D01*
X162055151Y-105805238D01*
X162038919Y-105840049D01*
X161992002Y-105893334D01*
X161923725Y-105912795D01*
X161855765Y-105892253D01*
X161810529Y-105840049D01*
X161794414Y-105805489D01*
X161788931Y-105795993D01*
X161663972Y-105617533D01*
X161656916Y-105609125D01*
X161502875Y-105455084D01*
X161494467Y-105448028D01*
X161316007Y-105323069D01*
X161306511Y-105317586D01*
X161109053Y-105225510D01*
X161098761Y-105221764D01*
X160926497Y-105175606D01*
X160912401Y-105175942D01*
X160909000Y-105183884D01*
X160909000Y-106785000D01*
X160888998Y-106853121D01*
X160835342Y-106899614D01*
X160783000Y-106911000D01*
X160527000Y-106911000D01*
X160458879Y-106890998D01*
X160412386Y-106837342D01*
X160401000Y-106785000D01*
X160401000Y-105189033D01*
X160397027Y-105175502D01*
X160388478Y-105174273D01*
X160211239Y-105221764D01*
X160200947Y-105225510D01*
X160003489Y-105317586D01*
X159993993Y-105323069D01*
X159815533Y-105448028D01*
X159807125Y-105455084D01*
X159653084Y-105609125D01*
X159646028Y-105617533D01*
X159521069Y-105795993D01*
X159515586Y-105805489D01*
X159499471Y-105840049D01*
X159452554Y-105893334D01*
X159384277Y-105912795D01*
X159316317Y-105892253D01*
X159271081Y-105840049D01*
X159254849Y-105805238D01*
X159254846Y-105805233D01*
X159252523Y-105800251D01*
X159179098Y-105695389D01*
X159124357Y-105617211D01*
X159124355Y-105617208D01*
X159121198Y-105612700D01*
X158959300Y-105450802D01*
X158954792Y-105447645D01*
X158954789Y-105447643D01*
X158798822Y-105338434D01*
X158771749Y-105319477D01*
X158766767Y-105317154D01*
X158766762Y-105317151D01*
X158569225Y-105225039D01*
X158569224Y-105225039D01*
X158564243Y-105222716D01*
X158558935Y-105221294D01*
X158558933Y-105221293D01*
X158348402Y-105164881D01*
X158348400Y-105164881D01*
X158343087Y-105163457D01*
X158115000Y-105143502D01*
X157886913Y-105163457D01*
X157881600Y-105164881D01*
X157881598Y-105164881D01*
X157671067Y-105221293D01*
X157671065Y-105221294D01*
X157665757Y-105222716D01*
X157660776Y-105225039D01*
X157660775Y-105225039D01*
X157463238Y-105317151D01*
X157463233Y-105317154D01*
X157458251Y-105319477D01*
X157431178Y-105338434D01*
X157275211Y-105447643D01*
X157275208Y-105447645D01*
X157270700Y-105450802D01*
X157108802Y-105612700D01*
X157105645Y-105617208D01*
X157105643Y-105617211D01*
X157050902Y-105695389D01*
X156977477Y-105800251D01*
X156975154Y-105805233D01*
X156975151Y-105805238D01*
X156975034Y-105805489D01*
X156880716Y-106007757D01*
X156821457Y-106228913D01*
X156806500Y-106399873D01*
X156806500Y-106914127D01*
X156806738Y-106916844D01*
X156806738Y-106916851D01*
X156807170Y-106921790D01*
X156821457Y-107085087D01*
X156822881Y-107090400D01*
X156822881Y-107090402D01*
X156836993Y-107143066D01*
X156880716Y-107306243D01*
X156883039Y-107311224D01*
X156883039Y-107311225D01*
X156975151Y-107508762D01*
X156975154Y-107508767D01*
X156977477Y-107513749D01*
X157024622Y-107581079D01*
X157060084Y-107631723D01*
X157108802Y-107701300D01*
X157270700Y-107863198D01*
X157275208Y-107866355D01*
X157275211Y-107866357D01*
X157406779Y-107958482D01*
X157451107Y-108013939D01*
X157458416Y-108084559D01*
X157426385Y-108147919D01*
X157406779Y-108164908D01*
X157299730Y-108239864D01*
X157299727Y-108239866D01*
X157295219Y-108243023D01*
X157138023Y-108400219D01*
X157134866Y-108404727D01*
X157134864Y-108404730D01*
X157026751Y-108559132D01*
X157010512Y-108582324D01*
X157008189Y-108587306D01*
X157008186Y-108587311D01*
X156925273Y-108765119D01*
X156916560Y-108783804D01*
X156859022Y-108998537D01*
X156839647Y-109220000D01*
X156859022Y-109441463D01*
X156916560Y-109656196D01*
X156918882Y-109661177D01*
X156918883Y-109661178D01*
X157008186Y-109852689D01*
X157008189Y-109852694D01*
X157010512Y-109857676D01*
X157013668Y-109862183D01*
X157013669Y-109862185D01*
X157105427Y-109993229D01*
X157128115Y-110060503D01*
X157110830Y-110129364D01*
X157059060Y-110177948D01*
X157002214Y-110191500D01*
X123184500Y-110191500D01*
X123116379Y-110171498D01*
X123069886Y-110117842D01*
X123058500Y-110065500D01*
X123058500Y-108101134D01*
X123467500Y-108101134D01*
X123474255Y-108163316D01*
X123525385Y-108299705D01*
X123612739Y-108416261D01*
X123729295Y-108503615D01*
X123865684Y-108554745D01*
X123927866Y-108561500D01*
X127024134Y-108561500D01*
X127086316Y-108554745D01*
X127222705Y-108503615D01*
X127339261Y-108416261D01*
X127426615Y-108299705D01*
X127477745Y-108163316D01*
X127479990Y-108142654D01*
X129331618Y-108142654D01*
X129338673Y-108152627D01*
X129369679Y-108178551D01*
X129376598Y-108183579D01*
X129601272Y-108324515D01*
X129608807Y-108328556D01*
X129850520Y-108437694D01*
X129858551Y-108440680D01*
X130112832Y-108516002D01*
X130121184Y-108517869D01*
X130383340Y-108557984D01*
X130391874Y-108558700D01*
X130657045Y-108562867D01*
X130665596Y-108562418D01*
X130928883Y-108530557D01*
X130937284Y-108528955D01*
X131193824Y-108461653D01*
X131201926Y-108458926D01*
X131446949Y-108357434D01*
X131454617Y-108353628D01*
X131683598Y-108219822D01*
X131690679Y-108215009D01*
X131770655Y-108152301D01*
X131779125Y-108140442D01*
X131772608Y-108128818D01*
X130568812Y-106925022D01*
X130554868Y-106917408D01*
X130553035Y-106917539D01*
X130546420Y-106921790D01*
X129338910Y-108129300D01*
X129331618Y-108142654D01*
X127479990Y-108142654D01*
X127484500Y-108101134D01*
X127484500Y-106536204D01*
X128543665Y-106536204D01*
X128558932Y-106800969D01*
X128560005Y-106809470D01*
X128611065Y-107069722D01*
X128613276Y-107077974D01*
X128699184Y-107328894D01*
X128702499Y-107336779D01*
X128821664Y-107573713D01*
X128826020Y-107581079D01*
X128955347Y-107769250D01*
X128965601Y-107777594D01*
X128979342Y-107770448D01*
X130183978Y-106565812D01*
X130190356Y-106554132D01*
X130920408Y-106554132D01*
X130920539Y-106555965D01*
X130924790Y-106562580D01*
X132131730Y-107769520D01*
X132143939Y-107776187D01*
X132155439Y-107767497D01*
X132252831Y-107634913D01*
X132257418Y-107627685D01*
X132383962Y-107394621D01*
X132387530Y-107386827D01*
X132481271Y-107138750D01*
X132483748Y-107130544D01*
X132542954Y-106872038D01*
X132544294Y-106863577D01*
X132568031Y-106597616D01*
X132568277Y-106592677D01*
X132568666Y-106555485D01*
X132568523Y-106550519D01*
X132550362Y-106284123D01*
X132549201Y-106275649D01*
X132495419Y-106015944D01*
X132493120Y-106007709D01*
X132404588Y-105757705D01*
X132401191Y-105749854D01*
X132279550Y-105514178D01*
X132275122Y-105506866D01*
X132156031Y-105337417D01*
X132145509Y-105329037D01*
X132132121Y-105336089D01*
X130928022Y-106540188D01*
X130920408Y-106554132D01*
X130190356Y-106554132D01*
X130191592Y-106551868D01*
X130191461Y-106550035D01*
X130187210Y-106543420D01*
X128979814Y-105336024D01*
X128967804Y-105329466D01*
X128956064Y-105338434D01*
X128847935Y-105488911D01*
X128843418Y-105496196D01*
X128719325Y-105730567D01*
X128715839Y-105738395D01*
X128624700Y-105987446D01*
X128622311Y-105995670D01*
X128565812Y-106254795D01*
X128564563Y-106263250D01*
X128543754Y-106527653D01*
X128543665Y-106536204D01*
X127484500Y-106536204D01*
X127484500Y-105004866D01*
X127477745Y-104942684D01*
X127426615Y-104806295D01*
X127339261Y-104689739D01*
X127222705Y-104602385D01*
X127086316Y-104551255D01*
X127024134Y-104544500D01*
X123927866Y-104544500D01*
X123865684Y-104551255D01*
X123729295Y-104602385D01*
X123612739Y-104689739D01*
X123525385Y-104806295D01*
X123474255Y-104942684D01*
X123467500Y-105004866D01*
X123467500Y-108101134D01*
X123058500Y-108101134D01*
X123058500Y-103806526D01*
X128850335Y-103806526D01*
X128869153Y-103976975D01*
X128871762Y-103984106D01*
X128871763Y-103984108D01*
X128879688Y-104005764D01*
X128928085Y-104138015D01*
X129023730Y-104280349D01*
X129150565Y-104395760D01*
X129301268Y-104477585D01*
X129467139Y-104521101D01*
X129584693Y-104522947D01*
X129652491Y-104544016D01*
X129698135Y-104598395D01*
X129707135Y-104668819D01*
X129676631Y-104732928D01*
X129642142Y-104759486D01*
X129642257Y-104759678D01*
X129640619Y-104760658D01*
X129639922Y-104761195D01*
X129638578Y-104761880D01*
X129411013Y-104898075D01*
X129403981Y-104902962D01*
X129341053Y-104953377D01*
X129332584Y-104965500D01*
X129338980Y-104976770D01*
X130543188Y-106180978D01*
X130557132Y-106188592D01*
X130558965Y-106188461D01*
X130565580Y-106184210D01*
X131772604Y-104977186D01*
X131779795Y-104964017D01*
X131772473Y-104953780D01*
X131725233Y-104915115D01*
X131718261Y-104910160D01*
X131492122Y-104771582D01*
X131484552Y-104767624D01*
X131248202Y-104663874D01*
X131193866Y-104618177D01*
X131172861Y-104550359D01*
X131191855Y-104481951D01*
X131244819Y-104434671D01*
X131298847Y-104422500D01*
X134894932Y-104422500D01*
X134963053Y-104442502D01*
X135009546Y-104496158D01*
X135019650Y-104566432D01*
X134990156Y-104631012D01*
X134944367Y-104664397D01*
X134725982Y-104757546D01*
X134725978Y-104757548D01*
X134722030Y-104759232D01*
X134702125Y-104771145D01*
X134490725Y-104897664D01*
X134490721Y-104897667D01*
X134487043Y-104899868D01*
X134273318Y-105071094D01*
X134174140Y-105175606D01*
X134121839Y-105230720D01*
X134084808Y-105269742D01*
X133925002Y-105492136D01*
X133796857Y-105734161D01*
X133795385Y-105738184D01*
X133795383Y-105738188D01*
X133730979Y-105914179D01*
X133702743Y-105991337D01*
X133644404Y-106258907D01*
X133622917Y-106531918D01*
X133638682Y-106805320D01*
X133639507Y-106809525D01*
X133639508Y-106809533D01*
X133660698Y-106917539D01*
X133691405Y-107074053D01*
X133692792Y-107078103D01*
X133692793Y-107078108D01*
X133772607Y-107311225D01*
X133780112Y-107333144D01*
X133903160Y-107577799D01*
X133905586Y-107581328D01*
X133905589Y-107581334D01*
X134034741Y-107769250D01*
X134058274Y-107803490D01*
X134242582Y-108006043D01*
X134245877Y-108008798D01*
X134245878Y-108008799D01*
X134264483Y-108024355D01*
X134452675Y-108181707D01*
X134456316Y-108183991D01*
X134681024Y-108324951D01*
X134681028Y-108324953D01*
X134684664Y-108327234D01*
X134752544Y-108357883D01*
X134930345Y-108438164D01*
X134930349Y-108438166D01*
X134934257Y-108439930D01*
X134938377Y-108441150D01*
X134938376Y-108441150D01*
X135192723Y-108516491D01*
X135192727Y-108516492D01*
X135196836Y-108517709D01*
X135201070Y-108518357D01*
X135201075Y-108518358D01*
X135463298Y-108558483D01*
X135463300Y-108558483D01*
X135467540Y-108559132D01*
X135606912Y-108561322D01*
X135737071Y-108563367D01*
X135737077Y-108563367D01*
X135741362Y-108563434D01*
X136013235Y-108530534D01*
X136278127Y-108461041D01*
X136282087Y-108459401D01*
X136282092Y-108459399D01*
X136434372Y-108396322D01*
X136531136Y-108356241D01*
X136767582Y-108218073D01*
X136983089Y-108049094D01*
X137007521Y-108023883D01*
X137167011Y-107859301D01*
X137173669Y-107852431D01*
X137176202Y-107848983D01*
X137176206Y-107848978D01*
X137333257Y-107635178D01*
X137335795Y-107631723D01*
X137337841Y-107627955D01*
X137464418Y-107394830D01*
X137464419Y-107394828D01*
X137466468Y-107391054D01*
X137514868Y-107262966D01*
X137561751Y-107138895D01*
X137561752Y-107138891D01*
X137563269Y-107134877D01*
X137613076Y-106917408D01*
X137623449Y-106872117D01*
X137623450Y-106872113D01*
X137624407Y-106867933D01*
X137629334Y-106812735D01*
X137648531Y-106597627D01*
X137648532Y-106597616D01*
X137648751Y-106595161D01*
X137649193Y-106553000D01*
X137638754Y-106399873D01*
X137630859Y-106284055D01*
X137630858Y-106284049D01*
X137630567Y-106279778D01*
X137575032Y-106011612D01*
X137483617Y-105753465D01*
X137410963Y-105612700D01*
X137359978Y-105513919D01*
X137359978Y-105513918D01*
X137358013Y-105510112D01*
X137348040Y-105495921D01*
X137226557Y-105323069D01*
X137200545Y-105286057D01*
X137096669Y-105174273D01*
X137017046Y-105088588D01*
X137017043Y-105088585D01*
X137014125Y-105085445D01*
X137010810Y-105082731D01*
X137010806Y-105082728D01*
X136849304Y-104950540D01*
X136802205Y-104911990D01*
X136568704Y-104768901D01*
X136551706Y-104761439D01*
X136329445Y-104663873D01*
X136275110Y-104618177D01*
X136254105Y-104550359D01*
X136273100Y-104481950D01*
X136326063Y-104434671D01*
X136380091Y-104422500D01*
X139974932Y-104422500D01*
X140043053Y-104442502D01*
X140089546Y-104496158D01*
X140099650Y-104566432D01*
X140070156Y-104631012D01*
X140024367Y-104664397D01*
X139805982Y-104757546D01*
X139805978Y-104757548D01*
X139802030Y-104759232D01*
X139782125Y-104771145D01*
X139570725Y-104897664D01*
X139570721Y-104897667D01*
X139567043Y-104899868D01*
X139353318Y-105071094D01*
X139254140Y-105175606D01*
X139201839Y-105230720D01*
X139164808Y-105269742D01*
X139005002Y-105492136D01*
X138876857Y-105734161D01*
X138875385Y-105738184D01*
X138875383Y-105738188D01*
X138810979Y-105914179D01*
X138782743Y-105991337D01*
X138724404Y-106258907D01*
X138702917Y-106531918D01*
X138718682Y-106805320D01*
X138719507Y-106809525D01*
X138719508Y-106809533D01*
X138740698Y-106917539D01*
X138771405Y-107074053D01*
X138772792Y-107078103D01*
X138772793Y-107078108D01*
X138852607Y-107311225D01*
X138860112Y-107333144D01*
X138983160Y-107577799D01*
X138985586Y-107581328D01*
X138985589Y-107581334D01*
X139114741Y-107769250D01*
X139138274Y-107803490D01*
X139322582Y-108006043D01*
X139325877Y-108008798D01*
X139325878Y-108008799D01*
X139344483Y-108024355D01*
X139532675Y-108181707D01*
X139536316Y-108183991D01*
X139761024Y-108324951D01*
X139761028Y-108324953D01*
X139764664Y-108327234D01*
X139832544Y-108357883D01*
X140010345Y-108438164D01*
X140010349Y-108438166D01*
X140014257Y-108439930D01*
X140018377Y-108441150D01*
X140018376Y-108441150D01*
X140272723Y-108516491D01*
X140272727Y-108516492D01*
X140276836Y-108517709D01*
X140281070Y-108518357D01*
X140281075Y-108518358D01*
X140543298Y-108558483D01*
X140543300Y-108558483D01*
X140547540Y-108559132D01*
X140686912Y-108561322D01*
X140817071Y-108563367D01*
X140817077Y-108563367D01*
X140821362Y-108563434D01*
X141093235Y-108530534D01*
X141358127Y-108461041D01*
X141362087Y-108459401D01*
X141362092Y-108459399D01*
X141514372Y-108396322D01*
X141611136Y-108356241D01*
X141847582Y-108218073D01*
X142063089Y-108049094D01*
X142087521Y-108023883D01*
X142247011Y-107859301D01*
X142253669Y-107852431D01*
X142256202Y-107848983D01*
X142256206Y-107848978D01*
X142413257Y-107635178D01*
X142415795Y-107631723D01*
X142417841Y-107627955D01*
X142544418Y-107394830D01*
X142544419Y-107394828D01*
X142546468Y-107391054D01*
X142594868Y-107262966D01*
X142641751Y-107138895D01*
X142641752Y-107138891D01*
X142643269Y-107134877D01*
X142693076Y-106917408D01*
X142703449Y-106872117D01*
X142703450Y-106872113D01*
X142704407Y-106867933D01*
X142709334Y-106812735D01*
X142728531Y-106597627D01*
X142728532Y-106597616D01*
X142728751Y-106595161D01*
X142729193Y-106553000D01*
X142718754Y-106399873D01*
X142710859Y-106284055D01*
X142710858Y-106284049D01*
X142710567Y-106279778D01*
X142655032Y-106011612D01*
X142563617Y-105753465D01*
X142490963Y-105612700D01*
X142439978Y-105513919D01*
X142439978Y-105513918D01*
X142438013Y-105510112D01*
X142428040Y-105495921D01*
X142306557Y-105323069D01*
X142280545Y-105286057D01*
X142176669Y-105174273D01*
X142097046Y-105088588D01*
X142097043Y-105088585D01*
X142094125Y-105085445D01*
X142090810Y-105082731D01*
X142090806Y-105082728D01*
X141929304Y-104950540D01*
X141882205Y-104911990D01*
X141648704Y-104768901D01*
X141631706Y-104761439D01*
X141409445Y-104663873D01*
X141355110Y-104618177D01*
X141334105Y-104550359D01*
X141353100Y-104481950D01*
X141406063Y-104434671D01*
X141460091Y-104422500D01*
X170417814Y-104422500D01*
X170477936Y-104437769D01*
X170551268Y-104477585D01*
X170717139Y-104521101D01*
X170804586Y-104522474D01*
X170881003Y-104523675D01*
X170881006Y-104523675D01*
X170888602Y-104523794D01*
X170896006Y-104522098D01*
X170896008Y-104522098D01*
X171009267Y-104496158D01*
X171055759Y-104485510D01*
X171154329Y-104435935D01*
X171210942Y-104422500D01*
X190667814Y-104422500D01*
X190727936Y-104437769D01*
X190801268Y-104477585D01*
X190967139Y-104521101D01*
X191054586Y-104522474D01*
X191131003Y-104523675D01*
X191131006Y-104523675D01*
X191138602Y-104523794D01*
X191146006Y-104522098D01*
X191146008Y-104522098D01*
X191259267Y-104496158D01*
X191305759Y-104485510D01*
X191458958Y-104408459D01*
X191464729Y-104403530D01*
X191464732Y-104403528D01*
X191583578Y-104302023D01*
X191589355Y-104297089D01*
X191689424Y-104157830D01*
X191753385Y-103998720D01*
X191777547Y-103828947D01*
X191777704Y-103814000D01*
X191757102Y-103643758D01*
X191696487Y-103483344D01*
X191599357Y-103342019D01*
X191593686Y-103336966D01*
X191476993Y-103232996D01*
X191476990Y-103232994D01*
X191471321Y-103227943D01*
X191463325Y-103223709D01*
X191326481Y-103151254D01*
X191326482Y-103151254D01*
X191319769Y-103147700D01*
X191279201Y-103137510D01*
X191160822Y-103107775D01*
X191160818Y-103107775D01*
X191153451Y-103105924D01*
X191145852Y-103105884D01*
X191145850Y-103105884D01*
X191074394Y-103105510D01*
X190981969Y-103105026D01*
X190974589Y-103106798D01*
X190974587Y-103106798D01*
X190822602Y-103143286D01*
X190822598Y-103143287D01*
X190815223Y-103145058D01*
X190726493Y-103190855D01*
X190725309Y-103191466D01*
X190667519Y-103205500D01*
X189206232Y-103205500D01*
X189138111Y-103185498D01*
X189091618Y-103131842D01*
X189081514Y-103061568D01*
X189113483Y-102994214D01*
X189114578Y-102993023D01*
X189120355Y-102988089D01*
X189220424Y-102848830D01*
X189284385Y-102689720D01*
X189308547Y-102519947D01*
X189308704Y-102505000D01*
X189288102Y-102334758D01*
X189227487Y-102174344D01*
X189223186Y-102168086D01*
X189134659Y-102039278D01*
X189134658Y-102039276D01*
X189130357Y-102033019D01*
X189074719Y-101983447D01*
X189007993Y-101923996D01*
X189007990Y-101923994D01*
X189002321Y-101918943D01*
X188850769Y-101838700D01*
X188833196Y-101834286D01*
X188691822Y-101798775D01*
X188691818Y-101798775D01*
X188684451Y-101796924D01*
X188676852Y-101796884D01*
X188676850Y-101796884D01*
X188605394Y-101796510D01*
X188512969Y-101796026D01*
X188505589Y-101797798D01*
X188505587Y-101797798D01*
X188353602Y-101834286D01*
X188353598Y-101834287D01*
X188346223Y-101836058D01*
X188269401Y-101875709D01*
X188256309Y-101882466D01*
X188198519Y-101896500D01*
X168753030Y-101896500D01*
X168692583Y-101877559D01*
X168691321Y-101879943D01*
X168546481Y-101803254D01*
X168546482Y-101803254D01*
X168539769Y-101799700D01*
X168528558Y-101796884D01*
X168380822Y-101759775D01*
X168380818Y-101759775D01*
X168373451Y-101757924D01*
X168365852Y-101757884D01*
X168365850Y-101757884D01*
X168294394Y-101757510D01*
X168201969Y-101757026D01*
X168194589Y-101758798D01*
X168194587Y-101758798D01*
X168042602Y-101795286D01*
X168042598Y-101795287D01*
X168035223Y-101797058D01*
X167946493Y-101842855D01*
X167945309Y-101843466D01*
X167887519Y-101857500D01*
X141112232Y-101857500D01*
X141053276Y-101842856D01*
X140971769Y-101799700D01*
X140960558Y-101796884D01*
X140812822Y-101759775D01*
X140812818Y-101759775D01*
X140805451Y-101757924D01*
X140797852Y-101757884D01*
X140797850Y-101757884D01*
X140726394Y-101757510D01*
X140633969Y-101757026D01*
X140626589Y-101758798D01*
X140626587Y-101758798D01*
X140474602Y-101795286D01*
X140474598Y-101795287D01*
X140467223Y-101797058D01*
X140314839Y-101875709D01*
X140185615Y-101988439D01*
X140087010Y-102128739D01*
X140024718Y-102288509D01*
X140023726Y-102296042D01*
X140023726Y-102296043D01*
X140019565Y-102327654D01*
X140002335Y-102458526D01*
X140021153Y-102628975D01*
X140080085Y-102790015D01*
X140175730Y-102932349D01*
X140181346Y-102937459D01*
X140235028Y-102986306D01*
X140271950Y-103046947D01*
X140270227Y-103117922D01*
X140230405Y-103176699D01*
X140165127Y-103204616D01*
X140150228Y-103205500D01*
X136032232Y-103205500D01*
X135973276Y-103190856D01*
X135891769Y-103147700D01*
X135851201Y-103137510D01*
X135732822Y-103107775D01*
X135732818Y-103107775D01*
X135725451Y-103105924D01*
X135717852Y-103105884D01*
X135717850Y-103105884D01*
X135646394Y-103105510D01*
X135553969Y-103105026D01*
X135546589Y-103106798D01*
X135546587Y-103106798D01*
X135394602Y-103143286D01*
X135394598Y-103143287D01*
X135387223Y-103145058D01*
X135298493Y-103190855D01*
X135297309Y-103191466D01*
X135239519Y-103205500D01*
X129960232Y-103205500D01*
X129901276Y-103190856D01*
X129819769Y-103147700D01*
X129779201Y-103137510D01*
X129660822Y-103107775D01*
X129660818Y-103107775D01*
X129653451Y-103105924D01*
X129645852Y-103105884D01*
X129645850Y-103105884D01*
X129574394Y-103105510D01*
X129481969Y-103105026D01*
X129474589Y-103106798D01*
X129474587Y-103106798D01*
X129322602Y-103143286D01*
X129322598Y-103143287D01*
X129315223Y-103145058D01*
X129162839Y-103223709D01*
X129033615Y-103336439D01*
X128935010Y-103476739D01*
X128872718Y-103636509D01*
X128850335Y-103806526D01*
X123058500Y-103806526D01*
X123058500Y-100013343D01*
X124712775Y-100013343D01*
X124729381Y-100182699D01*
X124783094Y-100344167D01*
X124786741Y-100350189D01*
X124786742Y-100350191D01*
X124800497Y-100372902D01*
X124871246Y-100489723D01*
X124989455Y-100612132D01*
X124995351Y-100615990D01*
X125124146Y-100700271D01*
X125131846Y-100705310D01*
X125138450Y-100707766D01*
X125138452Y-100707767D01*
X125174844Y-100721301D01*
X125291341Y-100764626D01*
X125460015Y-100787132D01*
X125467026Y-100786494D01*
X125467030Y-100786494D01*
X125622462Y-100772348D01*
X125629483Y-100771709D01*
X125636185Y-100769531D01*
X125636187Y-100769531D01*
X125784623Y-100721301D01*
X125784626Y-100721300D01*
X125791322Y-100719124D01*
X125822948Y-100700271D01*
X125887466Y-100682500D01*
X157657427Y-100682500D01*
X157716705Y-100700172D01*
X157717663Y-100698276D01*
X157723950Y-100701452D01*
X157729846Y-100705310D01*
X157736450Y-100707766D01*
X157736452Y-100707767D01*
X157772844Y-100721301D01*
X157889341Y-100764626D01*
X158058015Y-100787132D01*
X158065026Y-100786494D01*
X158065030Y-100786494D01*
X158220462Y-100772348D01*
X158227483Y-100771709D01*
X158234185Y-100769531D01*
X158234187Y-100769531D01*
X158382623Y-100721301D01*
X158382626Y-100721300D01*
X158389322Y-100719124D01*
X158535490Y-100631990D01*
X158540584Y-100627139D01*
X158540588Y-100627136D01*
X158607833Y-100563099D01*
X158658721Y-100514639D01*
X158752891Y-100372902D01*
X158813319Y-100213825D01*
X158837001Y-100045313D01*
X158837299Y-100024000D01*
X158818331Y-99854892D01*
X158762368Y-99694189D01*
X158756383Y-99684610D01*
X158734420Y-99649464D01*
X158672192Y-99549879D01*
X158552286Y-99429132D01*
X158536039Y-99418821D01*
X158452018Y-99365500D01*
X158408608Y-99337951D01*
X158248300Y-99280868D01*
X158079329Y-99260720D01*
X158072326Y-99261456D01*
X158072325Y-99261456D01*
X157917101Y-99277770D01*
X157917097Y-99277771D01*
X157910093Y-99278507D01*
X157903422Y-99280778D01*
X157755673Y-99331075D01*
X157755670Y-99331076D01*
X157749003Y-99333346D01*
X157727105Y-99346818D01*
X157661083Y-99365500D01*
X125890624Y-99365500D01*
X125823110Y-99345885D01*
X125822330Y-99345390D01*
X125810608Y-99337951D01*
X125650300Y-99280868D01*
X125481329Y-99260720D01*
X125474326Y-99261456D01*
X125474325Y-99261456D01*
X125319101Y-99277770D01*
X125319097Y-99277771D01*
X125312093Y-99278507D01*
X125305422Y-99280778D01*
X125157673Y-99331075D01*
X125157670Y-99331076D01*
X125151003Y-99333346D01*
X125145005Y-99337036D01*
X125145003Y-99337037D01*
X125012065Y-99418821D01*
X125012063Y-99418823D01*
X125006066Y-99422512D01*
X124884486Y-99541573D01*
X124792304Y-99684610D01*
X124734103Y-99844516D01*
X124712775Y-100013343D01*
X123058500Y-100013343D01*
X123058500Y-95913083D01*
X123058504Y-95912024D01*
X123062210Y-95471061D01*
X123336610Y-95471061D01*
X123343063Y-95600695D01*
X123348934Y-95718615D01*
X123353147Y-95803255D01*
X123353788Y-95806986D01*
X123353789Y-95806994D01*
X123408463Y-96125173D01*
X123409474Y-96131057D01*
X123410562Y-96134696D01*
X123410563Y-96134699D01*
X123479783Y-96366153D01*
X123504774Y-96449718D01*
X123506287Y-96453189D01*
X123506289Y-96453195D01*
X123563542Y-96584554D01*
X123637666Y-96754622D01*
X123639589Y-96757893D01*
X123639591Y-96757897D01*
X123707270Y-96873022D01*
X123806226Y-97041352D01*
X123808527Y-97044367D01*
X124005712Y-97302742D01*
X124005717Y-97302748D01*
X124008012Y-97305755D01*
X124010656Y-97308469D01*
X124181164Y-97483500D01*
X124240102Y-97544002D01*
X124499132Y-97752640D01*
X124781352Y-97928648D01*
X125082672Y-98069476D01*
X125398729Y-98173085D01*
X125724944Y-98237973D01*
X125728716Y-98238260D01*
X125728724Y-98238261D01*
X126052815Y-98262914D01*
X126052820Y-98262914D01*
X126056592Y-98263201D01*
X126388869Y-98248403D01*
X126393401Y-98247649D01*
X126713220Y-98194417D01*
X126713225Y-98194416D01*
X126716961Y-98193794D01*
X127036116Y-98100164D01*
X127039583Y-98098674D01*
X127039587Y-98098673D01*
X127338228Y-97970366D01*
X127338230Y-97970365D01*
X127341712Y-97968869D01*
X127629321Y-97801813D01*
X127632343Y-97799532D01*
X127632347Y-97799529D01*
X127891753Y-97603697D01*
X127891754Y-97603696D01*
X127894777Y-97601414D01*
X128134235Y-97370575D01*
X128344227Y-97112641D01*
X128448339Y-96947633D01*
X128519683Y-96834560D01*
X128519685Y-96834557D01*
X128521710Y-96831347D01*
X128523554Y-96827456D01*
X128592912Y-96681057D01*
X128664114Y-96530767D01*
X128665707Y-96525994D01*
X128710688Y-96391169D01*
X132449001Y-96391169D01*
X132449371Y-96397990D01*
X132454895Y-96448852D01*
X132458521Y-96464104D01*
X132503676Y-96584554D01*
X132512214Y-96600149D01*
X132588715Y-96702224D01*
X132601276Y-96714785D01*
X132703351Y-96791286D01*
X132718946Y-96799824D01*
X132839394Y-96844978D01*
X132854649Y-96848605D01*
X132905514Y-96854131D01*
X132912328Y-96854500D01*
X133584885Y-96854500D01*
X133600124Y-96850025D01*
X133601329Y-96848635D01*
X133603000Y-96840952D01*
X133603000Y-96836384D01*
X134111000Y-96836384D01*
X134115475Y-96851623D01*
X134116865Y-96852828D01*
X134124548Y-96854499D01*
X134801669Y-96854499D01*
X134808490Y-96854129D01*
X134859352Y-96848605D01*
X134874604Y-96844979D01*
X134995054Y-96799824D01*
X135010649Y-96791286D01*
X135112724Y-96714785D01*
X135125285Y-96702224D01*
X135201786Y-96600149D01*
X135210324Y-96584554D01*
X135231773Y-96527340D01*
X135274415Y-96470575D01*
X135340977Y-96445876D01*
X135410325Y-96461084D01*
X135430240Y-96474626D01*
X135586349Y-96604230D01*
X135786322Y-96721084D01*
X136002694Y-96803709D01*
X136007760Y-96804740D01*
X136007761Y-96804740D01*
X136060846Y-96815540D01*
X136229656Y-96849885D01*
X136360324Y-96854676D01*
X136455949Y-96858183D01*
X136455953Y-96858183D01*
X136461113Y-96858372D01*
X136466233Y-96857716D01*
X136466235Y-96857716D01*
X136565668Y-96844978D01*
X136690847Y-96828942D01*
X136695795Y-96827457D01*
X136695802Y-96827456D01*
X136907747Y-96763869D01*
X136912690Y-96762386D01*
X136917324Y-96760116D01*
X137116049Y-96662762D01*
X137116052Y-96662760D01*
X137120684Y-96660491D01*
X137309243Y-96525994D01*
X137473303Y-96362505D01*
X137608458Y-96174417D01*
X137619109Y-96152866D01*
X137632796Y-96125173D01*
X137680910Y-96072966D01*
X137745753Y-96055000D01*
X138115500Y-96055000D01*
X138183621Y-96075002D01*
X138230114Y-96128658D01*
X138241500Y-96181000D01*
X138241500Y-96775400D01*
X138241837Y-96778646D01*
X138241837Y-96778650D01*
X138250041Y-96857716D01*
X138252474Y-96881166D01*
X138308450Y-97048946D01*
X138401522Y-97199348D01*
X138526697Y-97324305D01*
X138532927Y-97328145D01*
X138532928Y-97328146D01*
X138670090Y-97412694D01*
X138677262Y-97417115D01*
X138757005Y-97443564D01*
X138838611Y-97470632D01*
X138838613Y-97470632D01*
X138845139Y-97472797D01*
X138851975Y-97473497D01*
X138851978Y-97473498D01*
X138895031Y-97477909D01*
X138949600Y-97483500D01*
X139950400Y-97483500D01*
X139953646Y-97483163D01*
X139953650Y-97483163D01*
X140049308Y-97473238D01*
X140049312Y-97473237D01*
X140056166Y-97472526D01*
X140062702Y-97470345D01*
X140062704Y-97470345D01*
X140194806Y-97426272D01*
X140223946Y-97416550D01*
X140374348Y-97323478D01*
X140499305Y-97198303D01*
X140503146Y-97192072D01*
X140588275Y-97053968D01*
X140588276Y-97053966D01*
X140592115Y-97047738D01*
X140647797Y-96879861D01*
X140650396Y-96854500D01*
X140655599Y-96803709D01*
X140658500Y-96775400D01*
X140658500Y-96149600D01*
X140656327Y-96128658D01*
X140648238Y-96050692D01*
X140648237Y-96050688D01*
X140647526Y-96043834D01*
X140591550Y-95876054D01*
X140498478Y-95725652D01*
X140411891Y-95639216D01*
X140377812Y-95576934D01*
X140382815Y-95506114D01*
X140411736Y-95461025D01*
X140494134Y-95378483D01*
X140499305Y-95373303D01*
X140510042Y-95355884D01*
X140562813Y-95308391D01*
X140617302Y-95296000D01*
X157664325Y-95296000D01*
X157733318Y-95316568D01*
X157755846Y-95331310D01*
X157762450Y-95333766D01*
X157762452Y-95333767D01*
X157821926Y-95355885D01*
X157915341Y-95390626D01*
X158084015Y-95413132D01*
X158091026Y-95412494D01*
X158091030Y-95412494D01*
X158246462Y-95398348D01*
X158253483Y-95397709D01*
X158260185Y-95395531D01*
X158260187Y-95395531D01*
X158408623Y-95347301D01*
X158408626Y-95347300D01*
X158415322Y-95345124D01*
X158530823Y-95276271D01*
X158595341Y-95258500D01*
X166583427Y-95258500D01*
X166642705Y-95276172D01*
X166643663Y-95274276D01*
X166649950Y-95277452D01*
X166655846Y-95281310D01*
X166662450Y-95283766D01*
X166662452Y-95283767D01*
X166695346Y-95296000D01*
X166815341Y-95340626D01*
X166984015Y-95363132D01*
X166991026Y-95362494D01*
X166991030Y-95362494D01*
X167146462Y-95348348D01*
X167153483Y-95347709D01*
X167160185Y-95345531D01*
X167160187Y-95345531D01*
X167308623Y-95297301D01*
X167308626Y-95297300D01*
X167315322Y-95295124D01*
X167461490Y-95207990D01*
X167466584Y-95203139D01*
X167466588Y-95203136D01*
X167537542Y-95135567D01*
X167584721Y-95090639D01*
X167678891Y-94948902D01*
X167739319Y-94789825D01*
X167763001Y-94621313D01*
X167763299Y-94600000D01*
X167744331Y-94430892D01*
X167736936Y-94409655D01*
X167706202Y-94321402D01*
X167688368Y-94270189D01*
X167674605Y-94248163D01*
X167638795Y-94190857D01*
X167598192Y-94125879D01*
X167478286Y-94005132D01*
X167334608Y-93913951D01*
X167174300Y-93856868D01*
X167005329Y-93836720D01*
X166998326Y-93837456D01*
X166998325Y-93837456D01*
X166843101Y-93853770D01*
X166843097Y-93853771D01*
X166836093Y-93854507D01*
X166829422Y-93856778D01*
X166681673Y-93907075D01*
X166681670Y-93907076D01*
X166675003Y-93909346D01*
X166653105Y-93922818D01*
X166587083Y-93941500D01*
X158393321Y-93941500D01*
X158351054Y-93934199D01*
X158344098Y-93931722D01*
X158274300Y-93906868D01*
X158105329Y-93886720D01*
X158098326Y-93887456D01*
X158098325Y-93887456D01*
X157943101Y-93903770D01*
X157943097Y-93903771D01*
X157936093Y-93904507D01*
X157775003Y-93959346D01*
X157768999Y-93963040D01*
X157762632Y-93966036D01*
X157761524Y-93963682D01*
X157707403Y-93979000D01*
X140617165Y-93979000D01*
X140549044Y-93958998D01*
X140510022Y-93919305D01*
X140502331Y-93906877D01*
X140502327Y-93906872D01*
X140498478Y-93900652D01*
X140373303Y-93775695D01*
X140367072Y-93771854D01*
X140228968Y-93686725D01*
X140228966Y-93686724D01*
X140222738Y-93682885D01*
X140062254Y-93629655D01*
X140061389Y-93629368D01*
X140061387Y-93629368D01*
X140054861Y-93627203D01*
X140048025Y-93626503D01*
X140048022Y-93626502D01*
X140004969Y-93622091D01*
X139950400Y-93616500D01*
X138949600Y-93616500D01*
X138946354Y-93616837D01*
X138946350Y-93616837D01*
X138850692Y-93626762D01*
X138850688Y-93626763D01*
X138843834Y-93627474D01*
X138837298Y-93629655D01*
X138837296Y-93629655D01*
X138717112Y-93669752D01*
X138676054Y-93683450D01*
X138525652Y-93776522D01*
X138400695Y-93901697D01*
X138396855Y-93907927D01*
X138396854Y-93907928D01*
X138313610Y-94042975D01*
X138307885Y-94052262D01*
X138252203Y-94220139D01*
X138241500Y-94324600D01*
X138241500Y-94712000D01*
X138221498Y-94780121D01*
X138167842Y-94826614D01*
X138115500Y-94838000D01*
X137749332Y-94838000D01*
X137681211Y-94817998D01*
X137643989Y-94777713D01*
X137642570Y-94778631D01*
X137599464Y-94712000D01*
X137516764Y-94584165D01*
X137360887Y-94412858D01*
X137356836Y-94409659D01*
X137356832Y-94409655D01*
X137183177Y-94272511D01*
X137183172Y-94272508D01*
X137179123Y-94269310D01*
X137174607Y-94266817D01*
X137174604Y-94266815D01*
X136980879Y-94159873D01*
X136980875Y-94159871D01*
X136976355Y-94157376D01*
X136971486Y-94155652D01*
X136971482Y-94155650D01*
X136762903Y-94081788D01*
X136762899Y-94081787D01*
X136758028Y-94080062D01*
X136752935Y-94079155D01*
X136752932Y-94079154D01*
X136535095Y-94040351D01*
X136535089Y-94040350D01*
X136530006Y-94039445D01*
X136452644Y-94038500D01*
X136303581Y-94036679D01*
X136303579Y-94036679D01*
X136298411Y-94036616D01*
X136069464Y-94071650D01*
X135849314Y-94143606D01*
X135844726Y-94145994D01*
X135844722Y-94145996D01*
X135703211Y-94219662D01*
X135643872Y-94250552D01*
X135639739Y-94253655D01*
X135639736Y-94253657D01*
X135462790Y-94386512D01*
X135458655Y-94389617D01*
X135455083Y-94393355D01*
X135440787Y-94408315D01*
X135379263Y-94443745D01*
X135308351Y-94440288D01*
X135250564Y-94399043D01*
X135231711Y-94365494D01*
X135210324Y-94308446D01*
X135201786Y-94292851D01*
X135125285Y-94190776D01*
X135112724Y-94178215D01*
X135010649Y-94101714D01*
X134995054Y-94093176D01*
X134874606Y-94048022D01*
X134859351Y-94044395D01*
X134808486Y-94038869D01*
X134801672Y-94038500D01*
X134129115Y-94038500D01*
X134113876Y-94042975D01*
X134112671Y-94044365D01*
X134111000Y-94052048D01*
X134111000Y-96836384D01*
X133603000Y-96836384D01*
X133603000Y-95718615D01*
X133598525Y-95703376D01*
X133597135Y-95702171D01*
X133589452Y-95700500D01*
X132467116Y-95700500D01*
X132451877Y-95704975D01*
X132450672Y-95706365D01*
X132449001Y-95714048D01*
X132449001Y-96391169D01*
X128710688Y-96391169D01*
X128768180Y-96218844D01*
X128769377Y-96215257D01*
X128835972Y-95889386D01*
X128862936Y-95557875D01*
X128863542Y-95500000D01*
X128862026Y-95474853D01*
X128843913Y-95174385D01*
X132449000Y-95174385D01*
X132453475Y-95189624D01*
X132454865Y-95190829D01*
X132462548Y-95192500D01*
X133584885Y-95192500D01*
X133600124Y-95188025D01*
X133601329Y-95186635D01*
X133603000Y-95178952D01*
X133603000Y-94056616D01*
X133598525Y-94041377D01*
X133597135Y-94040172D01*
X133589452Y-94038501D01*
X132912331Y-94038501D01*
X132905510Y-94038871D01*
X132854648Y-94044395D01*
X132839396Y-94048021D01*
X132718946Y-94093176D01*
X132703351Y-94101714D01*
X132601276Y-94178215D01*
X132588715Y-94190776D01*
X132512214Y-94292851D01*
X132503676Y-94308446D01*
X132458522Y-94428894D01*
X132454895Y-94444149D01*
X132449369Y-94495014D01*
X132449000Y-94501828D01*
X132449000Y-95174385D01*
X128843913Y-95174385D01*
X128843755Y-95171772D01*
X128843754Y-95171765D01*
X128843527Y-95167997D01*
X128803513Y-94948902D01*
X128784451Y-94844530D01*
X128784450Y-94844525D01*
X128783770Y-94840803D01*
X128779365Y-94826614D01*
X128686261Y-94526771D01*
X128685139Y-94523157D01*
X128549061Y-94219662D01*
X128440523Y-94039382D01*
X128379466Y-93937966D01*
X128379462Y-93937960D01*
X128377507Y-93934713D01*
X128375180Y-93931729D01*
X128375175Y-93931722D01*
X128175294Y-93675425D01*
X128175288Y-93675418D01*
X128172963Y-93672437D01*
X127938392Y-93436634D01*
X127677191Y-93230720D01*
X127393144Y-93057677D01*
X127272046Y-93002617D01*
X127093817Y-92921580D01*
X127093809Y-92921577D01*
X127090365Y-92920011D01*
X126773240Y-92819718D01*
X126550896Y-92777906D01*
X126450087Y-92758949D01*
X126450085Y-92758949D01*
X126446364Y-92758249D01*
X126114470Y-92736496D01*
X126110690Y-92736704D01*
X126110689Y-92736704D01*
X126012918Y-92742085D01*
X125782366Y-92754773D01*
X125778639Y-92755434D01*
X125778635Y-92755434D01*
X125519510Y-92801358D01*
X125454864Y-92812815D01*
X125451239Y-92813920D01*
X125451234Y-92813921D01*
X125243683Y-92877178D01*
X125136707Y-92909782D01*
X125133243Y-92911313D01*
X125133236Y-92911316D01*
X124946051Y-92994070D01*
X124832503Y-93044269D01*
X124829249Y-93046205D01*
X124829243Y-93046208D01*
X124549918Y-93212389D01*
X124546659Y-93214328D01*
X124283316Y-93417496D01*
X124280617Y-93420152D01*
X124280618Y-93420152D01*
X124081161Y-93616500D01*
X124046288Y-93650829D01*
X123946787Y-93775695D01*
X123842926Y-93906034D01*
X123839009Y-93910949D01*
X123664481Y-94194086D01*
X123525232Y-94496140D01*
X123524073Y-94499740D01*
X123524070Y-94499747D01*
X123428536Y-94796414D01*
X123423280Y-94812735D01*
X123422561Y-94816451D01*
X123422559Y-94816459D01*
X123360819Y-95135567D01*
X123360100Y-95139285D01*
X123359833Y-95143061D01*
X123359832Y-95143066D01*
X123336878Y-95467272D01*
X123336610Y-95471061D01*
X123062210Y-95471061D01*
X123069496Y-94603961D01*
X123094584Y-91618526D01*
X124762335Y-91618526D01*
X124781153Y-91788975D01*
X124840085Y-91950015D01*
X124935730Y-92092349D01*
X125062565Y-92207760D01*
X125213268Y-92289585D01*
X125379139Y-92333101D01*
X125466586Y-92334474D01*
X125543003Y-92335675D01*
X125543006Y-92335675D01*
X125550602Y-92335794D01*
X125558006Y-92334098D01*
X125558008Y-92334098D01*
X125664124Y-92309794D01*
X125717759Y-92297510D01*
X125816329Y-92247935D01*
X125872942Y-92234500D01*
X140701700Y-92234500D01*
X140761822Y-92249769D01*
X140787268Y-92263585D01*
X140953139Y-92307101D01*
X141040586Y-92308474D01*
X141117003Y-92309675D01*
X141117006Y-92309675D01*
X141124602Y-92309794D01*
X141132006Y-92308098D01*
X141132008Y-92308098D01*
X141228658Y-92285962D01*
X141291759Y-92271510D01*
X141444958Y-92194459D01*
X141450729Y-92189530D01*
X141450732Y-92189528D01*
X141569578Y-92088023D01*
X141575355Y-92083089D01*
X141675424Y-91943830D01*
X141739385Y-91784720D01*
X141763547Y-91614947D01*
X141763704Y-91600000D01*
X141746283Y-91456043D01*
X141744015Y-91437299D01*
X141744014Y-91437296D01*
X141743102Y-91429758D01*
X141682487Y-91269344D01*
X141603662Y-91154653D01*
X141589659Y-91134278D01*
X141589658Y-91134276D01*
X141585357Y-91128019D01*
X141579686Y-91122966D01*
X141462993Y-91018996D01*
X141462990Y-91018994D01*
X141457321Y-91013943D01*
X141449325Y-91009709D01*
X141349884Y-90957058D01*
X141305769Y-90933700D01*
X141288196Y-90929286D01*
X141146822Y-90893775D01*
X141146818Y-90893775D01*
X141139451Y-90891924D01*
X141131852Y-90891884D01*
X141131850Y-90891884D01*
X141060394Y-90891510D01*
X140967969Y-90891026D01*
X140960589Y-90892798D01*
X140960587Y-90892798D01*
X140808602Y-90929286D01*
X140808598Y-90929287D01*
X140801223Y-90931058D01*
X140662119Y-91002855D01*
X140660935Y-91003466D01*
X140603145Y-91017500D01*
X125872232Y-91017500D01*
X125813276Y-91002856D01*
X125731769Y-90959700D01*
X125714196Y-90955286D01*
X125572822Y-90919775D01*
X125572818Y-90919775D01*
X125565451Y-90917924D01*
X125557852Y-90917884D01*
X125557850Y-90917884D01*
X125486394Y-90917510D01*
X125393969Y-90917026D01*
X125386589Y-90918798D01*
X125386587Y-90918798D01*
X125234602Y-90955286D01*
X125234598Y-90955287D01*
X125227223Y-90957058D01*
X125074839Y-91035709D01*
X124945615Y-91148439D01*
X124847010Y-91288739D01*
X124844250Y-91295819D01*
X124789089Y-91437299D01*
X124784718Y-91448509D01*
X124783726Y-91456042D01*
X124783726Y-91456043D01*
X124764230Y-91604133D01*
X124762335Y-91618526D01*
X123094584Y-91618526D01*
X123159227Y-83925918D01*
X123462917Y-83925918D01*
X123478682Y-84199320D01*
X123479507Y-84203525D01*
X123479508Y-84203533D01*
X123500698Y-84311539D01*
X123531405Y-84468053D01*
X123532792Y-84472103D01*
X123532793Y-84472108D01*
X123618657Y-84722894D01*
X123620112Y-84727144D01*
X123647112Y-84780827D01*
X123730378Y-84946384D01*
X123743160Y-84971799D01*
X123745586Y-84975328D01*
X123745589Y-84975334D01*
X123874741Y-85163250D01*
X123898274Y-85197490D01*
X123901161Y-85200663D01*
X123901162Y-85200664D01*
X123982945Y-85290543D01*
X124082582Y-85400043D01*
X124292675Y-85575707D01*
X124296316Y-85577991D01*
X124521024Y-85718951D01*
X124521028Y-85718953D01*
X124524664Y-85721234D01*
X124592544Y-85751883D01*
X124770345Y-85832164D01*
X124770349Y-85832166D01*
X124774257Y-85833930D01*
X124778377Y-85835150D01*
X124778376Y-85835150D01*
X125032723Y-85910491D01*
X125032727Y-85910492D01*
X125036836Y-85911709D01*
X125041070Y-85912357D01*
X125041075Y-85912358D01*
X125303298Y-85952483D01*
X125303300Y-85952483D01*
X125307540Y-85953132D01*
X125446912Y-85955322D01*
X125577071Y-85957367D01*
X125577077Y-85957367D01*
X125581362Y-85957434D01*
X125853235Y-85924534D01*
X126118127Y-85855041D01*
X126122087Y-85853401D01*
X126122092Y-85853399D01*
X126244632Y-85802641D01*
X126371136Y-85750241D01*
X126520578Y-85662914D01*
X126603879Y-85614237D01*
X126603880Y-85614236D01*
X126607582Y-85612073D01*
X126823089Y-85443094D01*
X126864809Y-85400043D01*
X126956785Y-85305131D01*
X127013669Y-85246431D01*
X127016202Y-85242983D01*
X127016206Y-85242978D01*
X127173257Y-85029178D01*
X127175795Y-85025723D01*
X127177841Y-85021955D01*
X127304418Y-84788830D01*
X127304419Y-84788828D01*
X127306468Y-84785054D01*
X127403269Y-84528877D01*
X127464407Y-84261933D01*
X127470384Y-84194969D01*
X127488531Y-83991627D01*
X127488532Y-83991616D01*
X127488751Y-83989161D01*
X127489193Y-83947000D01*
X127487756Y-83925918D01*
X128542917Y-83925918D01*
X128558682Y-84199320D01*
X128559507Y-84203525D01*
X128559508Y-84203533D01*
X128580698Y-84311539D01*
X128611405Y-84468053D01*
X128612792Y-84472103D01*
X128612793Y-84472108D01*
X128698657Y-84722894D01*
X128700112Y-84727144D01*
X128727112Y-84780827D01*
X128810378Y-84946384D01*
X128823160Y-84971799D01*
X128825586Y-84975328D01*
X128825589Y-84975334D01*
X128954741Y-85163250D01*
X128978274Y-85197490D01*
X128981161Y-85200663D01*
X128981162Y-85200664D01*
X129062945Y-85290543D01*
X129162582Y-85400043D01*
X129372675Y-85575707D01*
X129376316Y-85577991D01*
X129601024Y-85718951D01*
X129601028Y-85718953D01*
X129604664Y-85721234D01*
X129672544Y-85751883D01*
X129850345Y-85832164D01*
X129850349Y-85832166D01*
X129854257Y-85833930D01*
X129858377Y-85835150D01*
X129858376Y-85835150D01*
X130112723Y-85910491D01*
X130112727Y-85910492D01*
X130116836Y-85911709D01*
X130121070Y-85912357D01*
X130121075Y-85912358D01*
X130383298Y-85952483D01*
X130383300Y-85952483D01*
X130387540Y-85953132D01*
X130526912Y-85955322D01*
X130657071Y-85957367D01*
X130657077Y-85957367D01*
X130661362Y-85957434D01*
X130933235Y-85924534D01*
X131198127Y-85855041D01*
X131202087Y-85853401D01*
X131202092Y-85853399D01*
X131324632Y-85802641D01*
X131451136Y-85750241D01*
X131600578Y-85662914D01*
X131683879Y-85614237D01*
X131683880Y-85614236D01*
X131687582Y-85612073D01*
X131783767Y-85536654D01*
X134411618Y-85536654D01*
X134418673Y-85546627D01*
X134449679Y-85572551D01*
X134456598Y-85577579D01*
X134681272Y-85718515D01*
X134688807Y-85722556D01*
X134930520Y-85831694D01*
X134938551Y-85834680D01*
X135192832Y-85910002D01*
X135201184Y-85911869D01*
X135463340Y-85951984D01*
X135471874Y-85952700D01*
X135737045Y-85956867D01*
X135745596Y-85956418D01*
X136008883Y-85924557D01*
X136017284Y-85922955D01*
X136273824Y-85855653D01*
X136281926Y-85852926D01*
X136526949Y-85751434D01*
X136534617Y-85747628D01*
X136763598Y-85613822D01*
X136770679Y-85609009D01*
X136850655Y-85546301D01*
X136859125Y-85534442D01*
X136852608Y-85522818D01*
X135648812Y-84319022D01*
X135634868Y-84311408D01*
X135633035Y-84311539D01*
X135626420Y-84315790D01*
X134418910Y-85523300D01*
X134411618Y-85536654D01*
X131783767Y-85536654D01*
X131903089Y-85443094D01*
X131944809Y-85400043D01*
X132036785Y-85305131D01*
X132093669Y-85246431D01*
X132096202Y-85242983D01*
X132096206Y-85242978D01*
X132253257Y-85029178D01*
X132255795Y-85025723D01*
X132257841Y-85021955D01*
X132384418Y-84788830D01*
X132384419Y-84788828D01*
X132386468Y-84785054D01*
X132483269Y-84528877D01*
X132544407Y-84261933D01*
X132550384Y-84194969D01*
X132568531Y-83991627D01*
X132568532Y-83991616D01*
X132568751Y-83989161D01*
X132569193Y-83947000D01*
X132568048Y-83930204D01*
X133623665Y-83930204D01*
X133638932Y-84194969D01*
X133640005Y-84203470D01*
X133691065Y-84463722D01*
X133693276Y-84471974D01*
X133779184Y-84722894D01*
X133782499Y-84730779D01*
X133901664Y-84967713D01*
X133906020Y-84975079D01*
X134035347Y-85163250D01*
X134045601Y-85171594D01*
X134059342Y-85164448D01*
X135263978Y-83959812D01*
X135270356Y-83948132D01*
X136000408Y-83948132D01*
X136000539Y-83949965D01*
X136004790Y-83956580D01*
X137211730Y-85163520D01*
X137223939Y-85170187D01*
X137235439Y-85161497D01*
X137332831Y-85028913D01*
X137337418Y-85021685D01*
X137463962Y-84788621D01*
X137467530Y-84780827D01*
X137561271Y-84532750D01*
X137563748Y-84524544D01*
X137622954Y-84266038D01*
X137624294Y-84257577D01*
X137648031Y-83991616D01*
X137648277Y-83986677D01*
X137648666Y-83949485D01*
X137648523Y-83944519D01*
X137630362Y-83678123D01*
X137629201Y-83669649D01*
X137575419Y-83409944D01*
X137573120Y-83401709D01*
X137484588Y-83151705D01*
X137481191Y-83143854D01*
X137359550Y-82908178D01*
X137355122Y-82900866D01*
X137236031Y-82731417D01*
X137225509Y-82723037D01*
X137212121Y-82730089D01*
X136008022Y-83934188D01*
X136000408Y-83948132D01*
X135270356Y-83948132D01*
X135271592Y-83945868D01*
X135271461Y-83944035D01*
X135267210Y-83937420D01*
X134059814Y-82730024D01*
X134047804Y-82723466D01*
X134036064Y-82732434D01*
X133927935Y-82882911D01*
X133923418Y-82890196D01*
X133799325Y-83124567D01*
X133795839Y-83132395D01*
X133704700Y-83381446D01*
X133702311Y-83389670D01*
X133645812Y-83648795D01*
X133644563Y-83657250D01*
X133623754Y-83921653D01*
X133623665Y-83930204D01*
X132568048Y-83930204D01*
X132562313Y-83846081D01*
X132550859Y-83678055D01*
X132550858Y-83678049D01*
X132550567Y-83673778D01*
X132495032Y-83405612D01*
X132403617Y-83147465D01*
X132278013Y-82904112D01*
X132268040Y-82889921D01*
X132196995Y-82788835D01*
X132120545Y-82680057D01*
X131986277Y-82535567D01*
X131937046Y-82482588D01*
X131937043Y-82482585D01*
X131934125Y-82479445D01*
X131930810Y-82476731D01*
X131930806Y-82476728D01*
X131787581Y-82359500D01*
X134412584Y-82359500D01*
X134418980Y-82370770D01*
X135623188Y-83574978D01*
X135637132Y-83582592D01*
X135638965Y-83582461D01*
X135645580Y-83578210D01*
X136852604Y-82371186D01*
X136859795Y-82358017D01*
X136852473Y-82347780D01*
X136805233Y-82309115D01*
X136798261Y-82304160D01*
X136572122Y-82165582D01*
X136564552Y-82161624D01*
X136321704Y-82055022D01*
X136313644Y-82052120D01*
X136058592Y-81979467D01*
X136050214Y-81977685D01*
X135787656Y-81940318D01*
X135779111Y-81939691D01*
X135513908Y-81938302D01*
X135505374Y-81938839D01*
X135242433Y-81973456D01*
X135234035Y-81975149D01*
X134978238Y-82045127D01*
X134970143Y-82047946D01*
X134726199Y-82151997D01*
X134718577Y-82155881D01*
X134491013Y-82292075D01*
X134483981Y-82296962D01*
X134421053Y-82347377D01*
X134412584Y-82359500D01*
X131787581Y-82359500D01*
X131764914Y-82340947D01*
X131722205Y-82305990D01*
X131488704Y-82162901D01*
X131483752Y-82160727D01*
X131241873Y-82054549D01*
X131241869Y-82054548D01*
X131237945Y-82052825D01*
X130974566Y-81977800D01*
X130970324Y-81977196D01*
X130970318Y-81977195D01*
X130765387Y-81948029D01*
X130703443Y-81939213D01*
X130559589Y-81938460D01*
X130433877Y-81937802D01*
X130433871Y-81937802D01*
X130429591Y-81937780D01*
X130425347Y-81938339D01*
X130425343Y-81938339D01*
X130351741Y-81948029D01*
X130158078Y-81973525D01*
X130153938Y-81974658D01*
X130153936Y-81974658D01*
X130086037Y-81993233D01*
X129893928Y-82045788D01*
X129889980Y-82047472D01*
X129645982Y-82151546D01*
X129645978Y-82151548D01*
X129642030Y-82153232D01*
X129542607Y-82212735D01*
X129410725Y-82291664D01*
X129410721Y-82291667D01*
X129407043Y-82293868D01*
X129193318Y-82465094D01*
X129112465Y-82550295D01*
X129026364Y-82641027D01*
X129004808Y-82663742D01*
X128845002Y-82886136D01*
X128716857Y-83128161D01*
X128715385Y-83132184D01*
X128715383Y-83132188D01*
X128624214Y-83381317D01*
X128622743Y-83385337D01*
X128564404Y-83652907D01*
X128542917Y-83925918D01*
X127487756Y-83925918D01*
X127482313Y-83846081D01*
X127470859Y-83678055D01*
X127470858Y-83678049D01*
X127470567Y-83673778D01*
X127415032Y-83405612D01*
X127323617Y-83147465D01*
X127198013Y-82904112D01*
X127188040Y-82889921D01*
X127116995Y-82788835D01*
X127040545Y-82680057D01*
X126906277Y-82535567D01*
X126857046Y-82482588D01*
X126857043Y-82482585D01*
X126854125Y-82479445D01*
X126850810Y-82476731D01*
X126850806Y-82476728D01*
X126684914Y-82340947D01*
X126642205Y-82305990D01*
X126408704Y-82162901D01*
X126403752Y-82160727D01*
X126161873Y-82054549D01*
X126161869Y-82054548D01*
X126157945Y-82052825D01*
X125894566Y-81977800D01*
X125890324Y-81977196D01*
X125890318Y-81977195D01*
X125685387Y-81948029D01*
X125623443Y-81939213D01*
X125479589Y-81938460D01*
X125353877Y-81937802D01*
X125353871Y-81937802D01*
X125349591Y-81937780D01*
X125345347Y-81938339D01*
X125345343Y-81938339D01*
X125271741Y-81948029D01*
X125078078Y-81973525D01*
X125073938Y-81974658D01*
X125073936Y-81974658D01*
X125006037Y-81993233D01*
X124813928Y-82045788D01*
X124809980Y-82047472D01*
X124565982Y-82151546D01*
X124565978Y-82151548D01*
X124562030Y-82153232D01*
X124462607Y-82212735D01*
X124330725Y-82291664D01*
X124330721Y-82291667D01*
X124327043Y-82293868D01*
X124113318Y-82465094D01*
X124032465Y-82550295D01*
X123946364Y-82641027D01*
X123924808Y-82663742D01*
X123765002Y-82886136D01*
X123636857Y-83128161D01*
X123635385Y-83132184D01*
X123635383Y-83132188D01*
X123544214Y-83381317D01*
X123542743Y-83385337D01*
X123484404Y-83652907D01*
X123462917Y-83925918D01*
X123159227Y-83925918D01*
X123188576Y-80433441D01*
X123209150Y-80365491D01*
X123263195Y-80319451D01*
X123314572Y-80308500D01*
X157002214Y-80308500D01*
X157070335Y-80328502D01*
G37*
%TD.AperFunction*%
%TA.AperFunction,Conductor*%
G36*
X161993683Y-107421747D02*
G01*
X162038919Y-107473951D01*
X162055151Y-107508762D01*
X162055154Y-107508767D01*
X162057477Y-107513749D01*
X162104622Y-107581079D01*
X162140084Y-107631723D01*
X162188802Y-107701300D01*
X162350700Y-107863198D01*
X162355208Y-107866355D01*
X162355211Y-107866357D01*
X162486779Y-107958482D01*
X162531107Y-108013939D01*
X162538416Y-108084559D01*
X162506385Y-108147919D01*
X162486779Y-108164908D01*
X162379730Y-108239864D01*
X162379727Y-108239866D01*
X162375219Y-108243023D01*
X162218023Y-108400219D01*
X162214866Y-108404727D01*
X162214864Y-108404730D01*
X162106751Y-108559132D01*
X162090512Y-108582324D01*
X162088189Y-108587306D01*
X162088186Y-108587311D01*
X162038919Y-108692965D01*
X161992001Y-108746250D01*
X161923724Y-108765711D01*
X161855764Y-108745169D01*
X161810529Y-108692965D01*
X161761377Y-108587559D01*
X161755897Y-108578068D01*
X161725206Y-108534235D01*
X161714729Y-108525860D01*
X161701282Y-108532928D01*
X160744095Y-109490115D01*
X160681783Y-109524141D01*
X160610968Y-109519076D01*
X160565905Y-109490115D01*
X159607997Y-108532207D01*
X159596223Y-108525777D01*
X159584207Y-108535074D01*
X159554103Y-108578068D01*
X159548623Y-108587559D01*
X159499471Y-108692965D01*
X159452553Y-108746250D01*
X159384276Y-108765711D01*
X159316316Y-108745169D01*
X159271081Y-108692965D01*
X159221814Y-108587311D01*
X159221811Y-108587306D01*
X159219488Y-108582324D01*
X159203249Y-108559132D01*
X159095136Y-108404730D01*
X159095134Y-108404727D01*
X159091977Y-108400219D01*
X158934781Y-108243023D01*
X158930273Y-108239866D01*
X158930270Y-108239864D01*
X158843277Y-108178951D01*
X158823220Y-108164907D01*
X158778893Y-108109451D01*
X158771584Y-108038832D01*
X158803615Y-107975471D01*
X158823221Y-107958482D01*
X158954789Y-107866357D01*
X158954792Y-107866355D01*
X158959300Y-107863198D01*
X159121198Y-107701300D01*
X159169917Y-107631723D01*
X159205378Y-107581079D01*
X159252523Y-107513749D01*
X159254846Y-107508767D01*
X159254849Y-107508762D01*
X159271081Y-107473951D01*
X159317998Y-107420666D01*
X159386275Y-107401205D01*
X159454235Y-107421747D01*
X159499471Y-107473951D01*
X159515586Y-107508511D01*
X159521069Y-107518007D01*
X159646028Y-107696467D01*
X159653084Y-107704875D01*
X159807125Y-107858916D01*
X159815533Y-107865972D01*
X159949555Y-107959815D01*
X159993883Y-108015272D01*
X160001192Y-108085891D01*
X159975705Y-108141701D01*
X159960860Y-108160272D01*
X159967928Y-108173718D01*
X160642188Y-108847978D01*
X160656132Y-108855592D01*
X160657965Y-108855461D01*
X160664580Y-108851210D01*
X161342793Y-108172997D01*
X161349223Y-108161223D01*
X161332958Y-108140200D01*
X161307095Y-108074082D01*
X161321083Y-108004477D01*
X161360344Y-107959886D01*
X161494467Y-107865972D01*
X161502875Y-107858916D01*
X161656916Y-107704875D01*
X161663972Y-107696467D01*
X161788931Y-107518007D01*
X161794414Y-107508511D01*
X161810529Y-107473951D01*
X161857446Y-107420666D01*
X161925723Y-107401205D01*
X161993683Y-107421747D01*
G37*
%TD.AperFunction*%
%TA.AperFunction,Conductor*%
G36*
X160699032Y-80980924D02*
G01*
X160744095Y-81009885D01*
X161702003Y-81967793D01*
X161713777Y-81974223D01*
X161725793Y-81964926D01*
X161755897Y-81921932D01*
X161761377Y-81912441D01*
X161810529Y-81807035D01*
X161857447Y-81753750D01*
X161925724Y-81734289D01*
X161993684Y-81754831D01*
X162038919Y-81807035D01*
X162088186Y-81912689D01*
X162088189Y-81912694D01*
X162090512Y-81917676D01*
X162093668Y-81922183D01*
X162093669Y-81922185D01*
X162211818Y-82090919D01*
X162218023Y-82099781D01*
X162375219Y-82256977D01*
X162379729Y-82260135D01*
X162379735Y-82260140D01*
X162453931Y-82312092D01*
X162498260Y-82367549D01*
X162505569Y-82438168D01*
X162473539Y-82501528D01*
X162453932Y-82518518D01*
X162355211Y-82587643D01*
X162355208Y-82587645D01*
X162350700Y-82590802D01*
X162188802Y-82752700D01*
X162057477Y-82940251D01*
X162055154Y-82945233D01*
X162055151Y-82945238D01*
X162039195Y-82979457D01*
X161992278Y-83032742D01*
X161924001Y-83052203D01*
X161856041Y-83031661D01*
X161810805Y-82979457D01*
X161794849Y-82945238D01*
X161794846Y-82945233D01*
X161792523Y-82940251D01*
X161661198Y-82752700D01*
X161499300Y-82590802D01*
X161494792Y-82587645D01*
X161494789Y-82587643D01*
X161384333Y-82510301D01*
X161340005Y-82454844D01*
X161332696Y-82384224D01*
X161349740Y-82346903D01*
X161350261Y-82341863D01*
X161342071Y-82326281D01*
X160667812Y-81652022D01*
X160653868Y-81644408D01*
X160652035Y-81644539D01*
X160645420Y-81648790D01*
X159967207Y-82327003D01*
X159959593Y-82340947D01*
X159959926Y-82345606D01*
X159979516Y-82395688D01*
X159965526Y-82465293D01*
X159926267Y-82509881D01*
X159868550Y-82550295D01*
X159815211Y-82587643D01*
X159815208Y-82587645D01*
X159810700Y-82590802D01*
X159648802Y-82752700D01*
X159517477Y-82940251D01*
X159515154Y-82945233D01*
X159515151Y-82945238D01*
X159499195Y-82979457D01*
X159452278Y-83032742D01*
X159384001Y-83052203D01*
X159316041Y-83031661D01*
X159270805Y-82979457D01*
X159254849Y-82945238D01*
X159254846Y-82945233D01*
X159252523Y-82940251D01*
X159121198Y-82752700D01*
X158959300Y-82590802D01*
X158954792Y-82587645D01*
X158954789Y-82587643D01*
X158856068Y-82518518D01*
X158811740Y-82463061D01*
X158804431Y-82392441D01*
X158836462Y-82329081D01*
X158856069Y-82312092D01*
X158930265Y-82260140D01*
X158930271Y-82260135D01*
X158934781Y-82256977D01*
X159091977Y-82099781D01*
X159098183Y-82090919D01*
X159216331Y-81922185D01*
X159216332Y-81922183D01*
X159219488Y-81917676D01*
X159221811Y-81912694D01*
X159221814Y-81912689D01*
X159271081Y-81807035D01*
X159317999Y-81753750D01*
X159386276Y-81734289D01*
X159454236Y-81754831D01*
X159499471Y-81807035D01*
X159548623Y-81912441D01*
X159554103Y-81921932D01*
X159584794Y-81965765D01*
X159595271Y-81974140D01*
X159608718Y-81967072D01*
X160565905Y-81009885D01*
X160628217Y-80975859D01*
X160699032Y-80980924D01*
G37*
%TD.AperFunction*%
%TA.AperFunction,Conductor*%
G36*
X170859032Y-80980924D02*
G01*
X170904095Y-81009885D01*
X171862003Y-81967793D01*
X171873777Y-81974223D01*
X171885793Y-81964926D01*
X171915897Y-81921932D01*
X171921377Y-81912441D01*
X171970529Y-81807035D01*
X172017447Y-81753750D01*
X172085724Y-81734289D01*
X172153684Y-81754831D01*
X172198919Y-81807035D01*
X172248186Y-81912689D01*
X172248189Y-81912694D01*
X172250512Y-81917676D01*
X172253668Y-81922183D01*
X172253669Y-81922185D01*
X172371818Y-82090919D01*
X172378023Y-82099781D01*
X172535219Y-82256977D01*
X172539729Y-82260135D01*
X172539735Y-82260140D01*
X172613931Y-82312092D01*
X172658260Y-82367549D01*
X172665569Y-82438168D01*
X172633539Y-82501528D01*
X172613932Y-82518518D01*
X172515211Y-82587643D01*
X172515208Y-82587645D01*
X172510700Y-82590802D01*
X172348802Y-82752700D01*
X172217477Y-82940251D01*
X172215154Y-82945233D01*
X172215151Y-82945238D01*
X172199195Y-82979457D01*
X172152278Y-83032742D01*
X172084001Y-83052203D01*
X172016041Y-83031661D01*
X171970805Y-82979457D01*
X171954849Y-82945238D01*
X171954846Y-82945233D01*
X171952523Y-82940251D01*
X171821198Y-82752700D01*
X171659300Y-82590802D01*
X171654792Y-82587645D01*
X171654789Y-82587643D01*
X171544333Y-82510301D01*
X171500005Y-82454844D01*
X171492696Y-82384224D01*
X171509740Y-82346903D01*
X171510261Y-82341863D01*
X171502071Y-82326281D01*
X170827812Y-81652022D01*
X170813868Y-81644408D01*
X170812035Y-81644539D01*
X170805420Y-81648790D01*
X170127207Y-82327003D01*
X170119593Y-82340947D01*
X170119926Y-82345606D01*
X170139516Y-82395688D01*
X170125526Y-82465293D01*
X170086267Y-82509881D01*
X170028550Y-82550295D01*
X169975211Y-82587643D01*
X169975208Y-82587645D01*
X169970700Y-82590802D01*
X169808802Y-82752700D01*
X169677477Y-82940251D01*
X169675154Y-82945233D01*
X169675151Y-82945238D01*
X169659195Y-82979457D01*
X169612278Y-83032742D01*
X169544001Y-83052203D01*
X169476041Y-83031661D01*
X169430805Y-82979457D01*
X169414849Y-82945238D01*
X169414846Y-82945233D01*
X169412523Y-82940251D01*
X169281198Y-82752700D01*
X169119300Y-82590802D01*
X169114792Y-82587645D01*
X169114789Y-82587643D01*
X169016068Y-82518518D01*
X168971740Y-82463061D01*
X168964431Y-82392441D01*
X168996462Y-82329081D01*
X169016069Y-82312092D01*
X169090265Y-82260140D01*
X169090271Y-82260135D01*
X169094781Y-82256977D01*
X169251977Y-82099781D01*
X169258183Y-82090919D01*
X169376331Y-81922185D01*
X169376332Y-81922183D01*
X169379488Y-81917676D01*
X169381811Y-81912694D01*
X169381814Y-81912689D01*
X169431081Y-81807035D01*
X169477999Y-81753750D01*
X169546276Y-81734289D01*
X169614236Y-81754831D01*
X169659471Y-81807035D01*
X169708623Y-81912441D01*
X169714103Y-81921932D01*
X169744794Y-81965765D01*
X169755271Y-81974140D01*
X169768718Y-81967072D01*
X170725905Y-81009885D01*
X170788217Y-80975859D01*
X170859032Y-80980924D01*
G37*
%TD.AperFunction*%
M02*
