%TF.GenerationSoftware,KiCad,Pcbnew,(6.0.4)*%
%TF.CreationDate,2022-04-29T21:33:46+01:00*%
%TF.ProjectId,environment_sensor,656e7669-726f-46e6-9d65-6e745f73656e,v0.1*%
%TF.SameCoordinates,Original*%
%TF.FileFunction,Legend,Top*%
%TF.FilePolarity,Positive*%
%FSLAX46Y46*%
G04 Gerber Fmt 4.6, Leading zero omitted, Abs format (unit mm)*
G04 Created by KiCad (PCBNEW (6.0.4)) date 2022-04-29 21:33:46*
%MOMM*%
%LPD*%
G01*
G04 APERTURE LIST*
%ADD10C,0.150000*%
%ADD11C,0.120000*%
G04 APERTURE END LIST*
D10*
X153202380Y-95761904D02*
X154011904Y-95761904D01*
X154107142Y-95714285D01*
X154154761Y-95666666D01*
X154202380Y-95571428D01*
X154202380Y-95380952D01*
X154154761Y-95285714D01*
X154107142Y-95238095D01*
X154011904Y-95190476D01*
X153202380Y-95190476D01*
X153297619Y-94761904D02*
X153250000Y-94714285D01*
X153202380Y-94619047D01*
X153202380Y-94380952D01*
X153250000Y-94285714D01*
X153297619Y-94238095D01*
X153392857Y-94190476D01*
X153488095Y-94190476D01*
X153630952Y-94238095D01*
X154202380Y-94809523D01*
X154202380Y-94190476D01*
X157372380Y-87295238D02*
X158372380Y-86961904D01*
X157372380Y-86628571D01*
X158372380Y-86295238D02*
X157372380Y-86295238D01*
X158372380Y-85819047D02*
X157372380Y-85819047D01*
X158372380Y-85247619D01*
X157372380Y-85247619D01*
X159960000Y-85938095D02*
X159912380Y-86033333D01*
X159912380Y-86176190D01*
X159960000Y-86319047D01*
X160055238Y-86414285D01*
X160150476Y-86461904D01*
X160340952Y-86509523D01*
X160483809Y-86509523D01*
X160674285Y-86461904D01*
X160769523Y-86414285D01*
X160864761Y-86319047D01*
X160912380Y-86176190D01*
X160912380Y-86080952D01*
X160864761Y-85938095D01*
X160817142Y-85890476D01*
X160483809Y-85890476D01*
X160483809Y-86080952D01*
X163452380Y-86747619D02*
X162976190Y-87080952D01*
X163452380Y-87319047D02*
X162452380Y-87319047D01*
X162452380Y-86938095D01*
X162500000Y-86842857D01*
X162547619Y-86795238D01*
X162642857Y-86747619D01*
X162785714Y-86747619D01*
X162880952Y-86795238D01*
X162928571Y-86842857D01*
X162976190Y-86938095D01*
X162976190Y-87319047D01*
X163404761Y-86366666D02*
X163452380Y-86223809D01*
X163452380Y-85985714D01*
X163404761Y-85890476D01*
X163357142Y-85842857D01*
X163261904Y-85795238D01*
X163166666Y-85795238D01*
X163071428Y-85842857D01*
X163023809Y-85890476D01*
X162976190Y-85985714D01*
X162928571Y-86176190D01*
X162880952Y-86271428D01*
X162833333Y-86319047D01*
X162738095Y-86366666D01*
X162642857Y-86366666D01*
X162547619Y-86319047D01*
X162500000Y-86271428D01*
X162452380Y-86176190D01*
X162452380Y-85938095D01*
X162500000Y-85795238D01*
X162452380Y-85509523D02*
X162452380Y-84938095D01*
X163452380Y-85223809D02*
X162452380Y-85223809D01*
X165468571Y-86938095D02*
X165468571Y-86604761D01*
X165992380Y-86461904D02*
X165992380Y-86938095D01*
X164992380Y-86938095D01*
X164992380Y-86461904D01*
X165992380Y-86033333D02*
X164992380Y-86033333D01*
X165992380Y-85461904D01*
X164992380Y-85461904D01*
X167532380Y-86961904D02*
X167532380Y-86342857D01*
X167913333Y-86676190D01*
X167913333Y-86533333D01*
X167960952Y-86438095D01*
X168008571Y-86390476D01*
X168103809Y-86342857D01*
X168341904Y-86342857D01*
X168437142Y-86390476D01*
X168484761Y-86438095D01*
X168532380Y-86533333D01*
X168532380Y-86819047D01*
X168484761Y-86914285D01*
X168437142Y-86961904D01*
X167532380Y-86057142D02*
X168532380Y-85723809D01*
X167532380Y-85390476D01*
X170120000Y-85938095D02*
X170072380Y-86033333D01*
X170072380Y-86176190D01*
X170120000Y-86319047D01*
X170215238Y-86414285D01*
X170310476Y-86461904D01*
X170500952Y-86509523D01*
X170643809Y-86509523D01*
X170834285Y-86461904D01*
X170929523Y-86414285D01*
X171024761Y-86319047D01*
X171072380Y-86176190D01*
X171072380Y-86080952D01*
X171024761Y-85938095D01*
X170977142Y-85890476D01*
X170643809Y-85890476D01*
X170643809Y-86080952D01*
X173564761Y-86985714D02*
X173612380Y-86842857D01*
X173612380Y-86604761D01*
X173564761Y-86509523D01*
X173517142Y-86461904D01*
X173421904Y-86414285D01*
X173326666Y-86414285D01*
X173231428Y-86461904D01*
X173183809Y-86509523D01*
X173136190Y-86604761D01*
X173088571Y-86795238D01*
X173040952Y-86890476D01*
X172993333Y-86938095D01*
X172898095Y-86985714D01*
X172802857Y-86985714D01*
X172707619Y-86938095D01*
X172660000Y-86890476D01*
X172612380Y-86795238D01*
X172612380Y-86557142D01*
X172660000Y-86414285D01*
X173612380Y-85985714D02*
X172612380Y-85985714D01*
X173612380Y-85414285D02*
X173040952Y-85842857D01*
X172612380Y-85414285D02*
X173183809Y-85985714D01*
X176104761Y-87009523D02*
X176152380Y-86866666D01*
X176152380Y-86628571D01*
X176104761Y-86533333D01*
X176057142Y-86485714D01*
X175961904Y-86438095D01*
X175866666Y-86438095D01*
X175771428Y-86485714D01*
X175723809Y-86533333D01*
X175676190Y-86628571D01*
X175628571Y-86819047D01*
X175580952Y-86914285D01*
X175533333Y-86961904D01*
X175438095Y-87009523D01*
X175342857Y-87009523D01*
X175247619Y-86961904D01*
X175200000Y-86914285D01*
X175152380Y-86819047D01*
X175152380Y-86580952D01*
X175200000Y-86438095D01*
X175152380Y-85819047D02*
X175152380Y-85628571D01*
X175200000Y-85533333D01*
X175295238Y-85438095D01*
X175485714Y-85390476D01*
X175819047Y-85390476D01*
X176009523Y-85438095D01*
X176104761Y-85533333D01*
X176152380Y-85628571D01*
X176152380Y-85819047D01*
X176104761Y-85914285D01*
X176009523Y-86009523D01*
X175819047Y-86057142D01*
X175485714Y-86057142D01*
X175295238Y-86009523D01*
X175200000Y-85914285D01*
X175152380Y-85819047D01*
X178839761Y-84605714D02*
X178887380Y-84462857D01*
X178887380Y-84224761D01*
X178839761Y-84129523D01*
X178792142Y-84081904D01*
X178696904Y-84034285D01*
X178601666Y-84034285D01*
X178506428Y-84081904D01*
X178458809Y-84129523D01*
X178411190Y-84224761D01*
X178363571Y-84415238D01*
X178315952Y-84510476D01*
X178268333Y-84558095D01*
X178173095Y-84605714D01*
X178077857Y-84605714D01*
X177982619Y-84558095D01*
X177935000Y-84510476D01*
X177887380Y-84415238D01*
X177887380Y-84177142D01*
X177935000Y-84034285D01*
X178792142Y-83034285D02*
X178839761Y-83081904D01*
X178887380Y-83224761D01*
X178887380Y-83320000D01*
X178839761Y-83462857D01*
X178744523Y-83558095D01*
X178649285Y-83605714D01*
X178458809Y-83653333D01*
X178315952Y-83653333D01*
X178125476Y-83605714D01*
X178030238Y-83558095D01*
X177935000Y-83462857D01*
X177887380Y-83320000D01*
X177887380Y-83224761D01*
X177935000Y-83081904D01*
X177982619Y-83034285D01*
X181379761Y-84581904D02*
X181427380Y-84439047D01*
X181427380Y-84200952D01*
X181379761Y-84105714D01*
X181332142Y-84058095D01*
X181236904Y-84010476D01*
X181141666Y-84010476D01*
X181046428Y-84058095D01*
X180998809Y-84105714D01*
X180951190Y-84200952D01*
X180903571Y-84391428D01*
X180855952Y-84486666D01*
X180808333Y-84534285D01*
X180713095Y-84581904D01*
X180617857Y-84581904D01*
X180522619Y-84534285D01*
X180475000Y-84486666D01*
X180427380Y-84391428D01*
X180427380Y-84153333D01*
X180475000Y-84010476D01*
X181427380Y-83058095D02*
X181427380Y-83629523D01*
X181427380Y-83343809D02*
X180427380Y-83343809D01*
X180570238Y-83439047D01*
X180665476Y-83534285D01*
X180713095Y-83629523D01*
X183919761Y-84581904D02*
X183967380Y-84439047D01*
X183967380Y-84200952D01*
X183919761Y-84105714D01*
X183872142Y-84058095D01*
X183776904Y-84010476D01*
X183681666Y-84010476D01*
X183586428Y-84058095D01*
X183538809Y-84105714D01*
X183491190Y-84200952D01*
X183443571Y-84391428D01*
X183395952Y-84486666D01*
X183348333Y-84534285D01*
X183253095Y-84581904D01*
X183157857Y-84581904D01*
X183062619Y-84534285D01*
X183015000Y-84486666D01*
X182967380Y-84391428D01*
X182967380Y-84153333D01*
X183015000Y-84010476D01*
X183062619Y-83629523D02*
X183015000Y-83581904D01*
X182967380Y-83486666D01*
X182967380Y-83248571D01*
X183015000Y-83153333D01*
X183062619Y-83105714D01*
X183157857Y-83058095D01*
X183253095Y-83058095D01*
X183395952Y-83105714D01*
X183967380Y-83677142D01*
X183967380Y-83058095D01*
X186459761Y-84581904D02*
X186507380Y-84439047D01*
X186507380Y-84200952D01*
X186459761Y-84105714D01*
X186412142Y-84058095D01*
X186316904Y-84010476D01*
X186221666Y-84010476D01*
X186126428Y-84058095D01*
X186078809Y-84105714D01*
X186031190Y-84200952D01*
X185983571Y-84391428D01*
X185935952Y-84486666D01*
X185888333Y-84534285D01*
X185793095Y-84581904D01*
X185697857Y-84581904D01*
X185602619Y-84534285D01*
X185555000Y-84486666D01*
X185507380Y-84391428D01*
X185507380Y-84153333D01*
X185555000Y-84010476D01*
X185507380Y-83677142D02*
X185507380Y-83058095D01*
X185888333Y-83391428D01*
X185888333Y-83248571D01*
X185935952Y-83153333D01*
X185983571Y-83105714D01*
X186078809Y-83058095D01*
X186316904Y-83058095D01*
X186412142Y-83105714D01*
X186459761Y-83153333D01*
X186507380Y-83248571D01*
X186507380Y-83534285D01*
X186459761Y-83629523D01*
X186412142Y-83677142D01*
X189047380Y-84415238D02*
X188571190Y-84748571D01*
X189047380Y-84986666D02*
X188047380Y-84986666D01*
X188047380Y-84605714D01*
X188095000Y-84510476D01*
X188142619Y-84462857D01*
X188237857Y-84415238D01*
X188380714Y-84415238D01*
X188475952Y-84462857D01*
X188523571Y-84510476D01*
X188571190Y-84605714D01*
X188571190Y-84986666D01*
X188999761Y-84034285D02*
X189047380Y-83891428D01*
X189047380Y-83653333D01*
X188999761Y-83558095D01*
X188952142Y-83510476D01*
X188856904Y-83462857D01*
X188761666Y-83462857D01*
X188666428Y-83510476D01*
X188618809Y-83558095D01*
X188571190Y-83653333D01*
X188523571Y-83843809D01*
X188475952Y-83939047D01*
X188428333Y-83986666D01*
X188333095Y-84034285D01*
X188237857Y-84034285D01*
X188142619Y-83986666D01*
X188095000Y-83939047D01*
X188047380Y-83843809D01*
X188047380Y-83605714D01*
X188095000Y-83462857D01*
X188047380Y-83177142D02*
X189047380Y-82843809D01*
X188047380Y-82510476D01*
X191587380Y-84415238D02*
X191111190Y-84748571D01*
X191587380Y-84986666D02*
X190587380Y-84986666D01*
X190587380Y-84605714D01*
X190635000Y-84510476D01*
X190682619Y-84462857D01*
X190777857Y-84415238D01*
X190920714Y-84415238D01*
X191015952Y-84462857D01*
X191063571Y-84510476D01*
X191111190Y-84605714D01*
X191111190Y-84986666D01*
X191539761Y-84034285D02*
X191587380Y-83891428D01*
X191587380Y-83653333D01*
X191539761Y-83558095D01*
X191492142Y-83510476D01*
X191396904Y-83462857D01*
X191301666Y-83462857D01*
X191206428Y-83510476D01*
X191158809Y-83558095D01*
X191111190Y-83653333D01*
X191063571Y-83843809D01*
X191015952Y-83939047D01*
X190968333Y-83986666D01*
X190873095Y-84034285D01*
X190777857Y-84034285D01*
X190682619Y-83986666D01*
X190635000Y-83939047D01*
X190587380Y-83843809D01*
X190587380Y-83605714D01*
X190635000Y-83462857D01*
X190587380Y-83177142D02*
X191587380Y-82843809D01*
X190587380Y-82510476D01*
X193841666Y-84534285D02*
X193841666Y-84058095D01*
X194127380Y-84629523D02*
X193127380Y-84296190D01*
X194127380Y-83962857D01*
X193127380Y-83439047D02*
X193127380Y-83343809D01*
X193175000Y-83248571D01*
X193222619Y-83200952D01*
X193317857Y-83153333D01*
X193508333Y-83105714D01*
X193746428Y-83105714D01*
X193936904Y-83153333D01*
X194032142Y-83200952D01*
X194079761Y-83248571D01*
X194127380Y-83343809D01*
X194127380Y-83439047D01*
X194079761Y-83534285D01*
X194032142Y-83581904D01*
X193936904Y-83629523D01*
X193746428Y-83677142D01*
X193508333Y-83677142D01*
X193317857Y-83629523D01*
X193222619Y-83581904D01*
X193175000Y-83534285D01*
X193127380Y-83439047D01*
X157552380Y-105111904D02*
X157552380Y-104492857D01*
X157933333Y-104826190D01*
X157933333Y-104683333D01*
X157980952Y-104588095D01*
X158028571Y-104540476D01*
X158123809Y-104492857D01*
X158361904Y-104492857D01*
X158457142Y-104540476D01*
X158504761Y-104588095D01*
X158552380Y-104683333D01*
X158552380Y-104969047D01*
X158504761Y-105064285D01*
X158457142Y-105111904D01*
X157552380Y-104207142D02*
X158552380Y-103873809D01*
X157552380Y-103540476D01*
X160060000Y-104138095D02*
X160012380Y-104233333D01*
X160012380Y-104376190D01*
X160060000Y-104519047D01*
X160155238Y-104614285D01*
X160250476Y-104661904D01*
X160440952Y-104709523D01*
X160583809Y-104709523D01*
X160774285Y-104661904D01*
X160869523Y-104614285D01*
X160964761Y-104519047D01*
X161012380Y-104376190D01*
X161012380Y-104280952D01*
X160964761Y-104138095D01*
X160917142Y-104090476D01*
X160583809Y-104090476D01*
X160583809Y-104280952D01*
X162552380Y-105161904D02*
X162552380Y-104590476D01*
X163552380Y-104876190D02*
X162552380Y-104876190D01*
X162552380Y-104352380D02*
X163552380Y-103685714D01*
X162552380Y-103685714D02*
X163552380Y-104352380D01*
X166092380Y-104566666D02*
X165616190Y-104900000D01*
X166092380Y-105138095D02*
X165092380Y-105138095D01*
X165092380Y-104757142D01*
X165140000Y-104661904D01*
X165187619Y-104614285D01*
X165282857Y-104566666D01*
X165425714Y-104566666D01*
X165520952Y-104614285D01*
X165568571Y-104661904D01*
X165616190Y-104757142D01*
X165616190Y-105138095D01*
X165092380Y-104233333D02*
X166092380Y-103566666D01*
X165092380Y-103566666D02*
X166092380Y-104233333D01*
X168632380Y-105138095D02*
X167632380Y-105138095D01*
X167632380Y-104900000D01*
X167680000Y-104757142D01*
X167775238Y-104661904D01*
X167870476Y-104614285D01*
X168060952Y-104566666D01*
X168203809Y-104566666D01*
X168394285Y-104614285D01*
X168489523Y-104661904D01*
X168584761Y-104757142D01*
X168632380Y-104900000D01*
X168632380Y-105138095D01*
X168060952Y-103995238D02*
X168013333Y-104090476D01*
X167965714Y-104138095D01*
X167870476Y-104185714D01*
X167822857Y-104185714D01*
X167727619Y-104138095D01*
X167680000Y-104090476D01*
X167632380Y-103995238D01*
X167632380Y-103804761D01*
X167680000Y-103709523D01*
X167727619Y-103661904D01*
X167822857Y-103614285D01*
X167870476Y-103614285D01*
X167965714Y-103661904D01*
X168013333Y-103709523D01*
X168060952Y-103804761D01*
X168060952Y-103995238D01*
X168108571Y-104090476D01*
X168156190Y-104138095D01*
X168251428Y-104185714D01*
X168441904Y-104185714D01*
X168537142Y-104138095D01*
X168584761Y-104090476D01*
X168632380Y-103995238D01*
X168632380Y-103804761D01*
X168584761Y-103709523D01*
X168537142Y-103661904D01*
X168441904Y-103614285D01*
X168251428Y-103614285D01*
X168156190Y-103661904D01*
X168108571Y-103709523D01*
X168060952Y-103804761D01*
X171172380Y-105138095D02*
X170172380Y-105138095D01*
X170172380Y-104900000D01*
X170220000Y-104757142D01*
X170315238Y-104661904D01*
X170410476Y-104614285D01*
X170600952Y-104566666D01*
X170743809Y-104566666D01*
X170934285Y-104614285D01*
X171029523Y-104661904D01*
X171124761Y-104757142D01*
X171172380Y-104900000D01*
X171172380Y-105138095D01*
X170172380Y-104233333D02*
X170172380Y-103566666D01*
X171172380Y-103995238D01*
X173712380Y-105138095D02*
X172712380Y-105138095D01*
X172712380Y-104900000D01*
X172760000Y-104757142D01*
X172855238Y-104661904D01*
X172950476Y-104614285D01*
X173140952Y-104566666D01*
X173283809Y-104566666D01*
X173474285Y-104614285D01*
X173569523Y-104661904D01*
X173664761Y-104757142D01*
X173712380Y-104900000D01*
X173712380Y-105138095D01*
X172712380Y-103709523D02*
X172712380Y-103900000D01*
X172760000Y-103995238D01*
X172807619Y-104042857D01*
X172950476Y-104138095D01*
X173140952Y-104185714D01*
X173521904Y-104185714D01*
X173617142Y-104138095D01*
X173664761Y-104090476D01*
X173712380Y-103995238D01*
X173712380Y-103804761D01*
X173664761Y-103709523D01*
X173617142Y-103661904D01*
X173521904Y-103614285D01*
X173283809Y-103614285D01*
X173188571Y-103661904D01*
X173140952Y-103709523D01*
X173093333Y-103804761D01*
X173093333Y-103995238D01*
X173140952Y-104090476D01*
X173188571Y-104138095D01*
X173283809Y-104185714D01*
X176252380Y-105138095D02*
X175252380Y-105138095D01*
X175252380Y-104900000D01*
X175300000Y-104757142D01*
X175395238Y-104661904D01*
X175490476Y-104614285D01*
X175680952Y-104566666D01*
X175823809Y-104566666D01*
X176014285Y-104614285D01*
X176109523Y-104661904D01*
X176204761Y-104757142D01*
X176252380Y-104900000D01*
X176252380Y-105138095D01*
X175252380Y-103661904D02*
X175252380Y-104138095D01*
X175728571Y-104185714D01*
X175680952Y-104138095D01*
X175633333Y-104042857D01*
X175633333Y-103804761D01*
X175680952Y-103709523D01*
X175728571Y-103661904D01*
X175823809Y-103614285D01*
X176061904Y-103614285D01*
X176157142Y-103661904D01*
X176204761Y-103709523D01*
X176252380Y-103804761D01*
X176252380Y-104042857D01*
X176204761Y-104138095D01*
X176157142Y-104185714D01*
X177935000Y-106418095D02*
X177887380Y-106513333D01*
X177887380Y-106656190D01*
X177935000Y-106799047D01*
X178030238Y-106894285D01*
X178125476Y-106941904D01*
X178315952Y-106989523D01*
X178458809Y-106989523D01*
X178649285Y-106941904D01*
X178744523Y-106894285D01*
X178839761Y-106799047D01*
X178887380Y-106656190D01*
X178887380Y-106560952D01*
X178839761Y-106418095D01*
X178792142Y-106370476D01*
X178458809Y-106370476D01*
X178458809Y-106560952D01*
X180427380Y-107441904D02*
X180427380Y-106822857D01*
X180808333Y-107156190D01*
X180808333Y-107013333D01*
X180855952Y-106918095D01*
X180903571Y-106870476D01*
X180998809Y-106822857D01*
X181236904Y-106822857D01*
X181332142Y-106870476D01*
X181379761Y-106918095D01*
X181427380Y-107013333D01*
X181427380Y-107299047D01*
X181379761Y-107394285D01*
X181332142Y-107441904D01*
X180427380Y-106537142D02*
X181427380Y-106203809D01*
X180427380Y-105870476D01*
X183967380Y-107418095D02*
X182967380Y-107418095D01*
X182967380Y-107180000D01*
X183015000Y-107037142D01*
X183110238Y-106941904D01*
X183205476Y-106894285D01*
X183395952Y-106846666D01*
X183538809Y-106846666D01*
X183729285Y-106894285D01*
X183824523Y-106941904D01*
X183919761Y-107037142D01*
X183967380Y-107180000D01*
X183967380Y-107418095D01*
X183300714Y-105989523D02*
X183967380Y-105989523D01*
X182919761Y-106227619D02*
X183634047Y-106465714D01*
X183634047Y-105846666D01*
X186507380Y-107418095D02*
X185507380Y-107418095D01*
X185507380Y-107180000D01*
X185555000Y-107037142D01*
X185650238Y-106941904D01*
X185745476Y-106894285D01*
X185935952Y-106846666D01*
X186078809Y-106846666D01*
X186269285Y-106894285D01*
X186364523Y-106941904D01*
X186459761Y-107037142D01*
X186507380Y-107180000D01*
X186507380Y-107418095D01*
X185507380Y-106513333D02*
X185507380Y-105894285D01*
X185888333Y-106227619D01*
X185888333Y-106084761D01*
X185935952Y-105989523D01*
X185983571Y-105941904D01*
X186078809Y-105894285D01*
X186316904Y-105894285D01*
X186412142Y-105941904D01*
X186459761Y-105989523D01*
X186507380Y-106084761D01*
X186507380Y-106370476D01*
X186459761Y-106465714D01*
X186412142Y-106513333D01*
X189047380Y-107418095D02*
X188047380Y-107418095D01*
X188047380Y-107180000D01*
X188095000Y-107037142D01*
X188190238Y-106941904D01*
X188285476Y-106894285D01*
X188475952Y-106846666D01*
X188618809Y-106846666D01*
X188809285Y-106894285D01*
X188904523Y-106941904D01*
X188999761Y-107037142D01*
X189047380Y-107180000D01*
X189047380Y-107418095D01*
X188142619Y-106465714D02*
X188095000Y-106418095D01*
X188047380Y-106322857D01*
X188047380Y-106084761D01*
X188095000Y-105989523D01*
X188142619Y-105941904D01*
X188237857Y-105894285D01*
X188333095Y-105894285D01*
X188475952Y-105941904D01*
X189047380Y-106513333D01*
X189047380Y-105894285D01*
X191587380Y-107418095D02*
X190587380Y-107418095D01*
X190587380Y-107180000D01*
X190635000Y-107037142D01*
X190730238Y-106941904D01*
X190825476Y-106894285D01*
X191015952Y-106846666D01*
X191158809Y-106846666D01*
X191349285Y-106894285D01*
X191444523Y-106941904D01*
X191539761Y-107037142D01*
X191587380Y-107180000D01*
X191587380Y-107418095D01*
X191587380Y-105894285D02*
X191587380Y-106465714D01*
X191587380Y-106180000D02*
X190587380Y-106180000D01*
X190730238Y-106275238D01*
X190825476Y-106370476D01*
X190873095Y-106465714D01*
X194127380Y-107418095D02*
X193127380Y-107418095D01*
X193127380Y-107180000D01*
X193175000Y-107037142D01*
X193270238Y-106941904D01*
X193365476Y-106894285D01*
X193555952Y-106846666D01*
X193698809Y-106846666D01*
X193889285Y-106894285D01*
X193984523Y-106941904D01*
X194079761Y-107037142D01*
X194127380Y-107180000D01*
X194127380Y-107418095D01*
X193127380Y-106227619D02*
X193127380Y-106132380D01*
X193175000Y-106037142D01*
X193222619Y-105989523D01*
X193317857Y-105941904D01*
X193508333Y-105894285D01*
X193746428Y-105894285D01*
X193936904Y-105941904D01*
X194032142Y-105989523D01*
X194079761Y-106037142D01*
X194127380Y-106132380D01*
X194127380Y-106227619D01*
X194079761Y-106322857D01*
X194032142Y-106370476D01*
X193936904Y-106418095D01*
X193746428Y-106465714D01*
X193508333Y-106465714D01*
X193317857Y-106418095D01*
X193222619Y-106370476D01*
X193175000Y-106322857D01*
X193127380Y-106227619D01*
X134388904Y-92938880D02*
X134388904Y-91938880D01*
X134627000Y-91938880D01*
X134769857Y-91986500D01*
X134865095Y-92081738D01*
X134912714Y-92176976D01*
X134960333Y-92367452D01*
X134960333Y-92510309D01*
X134912714Y-92700785D01*
X134865095Y-92796023D01*
X134769857Y-92891261D01*
X134627000Y-92938880D01*
X134388904Y-92938880D01*
X135912714Y-92938880D02*
X135341285Y-92938880D01*
X135627000Y-92938880D02*
X135627000Y-91938880D01*
X135531761Y-92081738D01*
X135436523Y-92176976D01*
X135341285Y-92224595D01*
X151502380Y-95711904D02*
X152311904Y-95711904D01*
X152407142Y-95664285D01*
X152454761Y-95616666D01*
X152502380Y-95521428D01*
X152502380Y-95330952D01*
X152454761Y-95235714D01*
X152407142Y-95188095D01*
X152311904Y-95140476D01*
X151502380Y-95140476D01*
X152502380Y-94140476D02*
X152502380Y-94711904D01*
X152502380Y-94426190D02*
X151502380Y-94426190D01*
X151645238Y-94521428D01*
X151740476Y-94616666D01*
X151788095Y-94711904D01*
X141552380Y-95716666D02*
X141076190Y-96050000D01*
X141552380Y-96288095D02*
X140552380Y-96288095D01*
X140552380Y-95907142D01*
X140600000Y-95811904D01*
X140647619Y-95764285D01*
X140742857Y-95716666D01*
X140885714Y-95716666D01*
X140980952Y-95764285D01*
X141028571Y-95811904D01*
X141076190Y-95907142D01*
X141076190Y-96288095D01*
X141552380Y-94764285D02*
X141552380Y-95335714D01*
X141552380Y-95050000D02*
X140552380Y-95050000D01*
X140695238Y-95145238D01*
X140790476Y-95240476D01*
X140838095Y-95335714D01*
X125116666Y-88199380D02*
X125116666Y-88913666D01*
X125069047Y-89056523D01*
X124973809Y-89151761D01*
X124830952Y-89199380D01*
X124735714Y-89199380D01*
X125545238Y-88294619D02*
X125592857Y-88247000D01*
X125688095Y-88199380D01*
X125926190Y-88199380D01*
X126021428Y-88247000D01*
X126069047Y-88294619D01*
X126116666Y-88389857D01*
X126116666Y-88485095D01*
X126069047Y-88627952D01*
X125497619Y-89199380D01*
X126116666Y-89199380D01*
X138416666Y-89104761D02*
X138559523Y-89152380D01*
X138797619Y-89152380D01*
X138892857Y-89104761D01*
X138940476Y-89057142D01*
X138988095Y-88961904D01*
X138988095Y-88866666D01*
X138940476Y-88771428D01*
X138892857Y-88723809D01*
X138797619Y-88676190D01*
X138607142Y-88628571D01*
X138511904Y-88580952D01*
X138464285Y-88533333D01*
X138416666Y-88438095D01*
X138416666Y-88342857D01*
X138464285Y-88247619D01*
X138511904Y-88200000D01*
X138607142Y-88152380D01*
X138845238Y-88152380D01*
X138988095Y-88200000D01*
X139845238Y-89104761D02*
X139750000Y-89152380D01*
X139559523Y-89152380D01*
X139464285Y-89104761D01*
X139416666Y-89057142D01*
X139369047Y-88961904D01*
X139369047Y-88676190D01*
X139416666Y-88580952D01*
X139464285Y-88533333D01*
X139559523Y-88485714D01*
X139750000Y-88485714D01*
X139845238Y-88533333D01*
X140273809Y-89152380D02*
X140273809Y-88485714D01*
X140273809Y-88676190D02*
X140321428Y-88580952D01*
X140369047Y-88533333D01*
X140464285Y-88485714D01*
X140559523Y-88485714D01*
X141273809Y-89104761D02*
X141178571Y-89152380D01*
X140988095Y-89152380D01*
X140892857Y-89104761D01*
X140845238Y-89009523D01*
X140845238Y-88628571D01*
X140892857Y-88533333D01*
X140988095Y-88485714D01*
X141178571Y-88485714D01*
X141273809Y-88533333D01*
X141321428Y-88628571D01*
X141321428Y-88723809D01*
X140845238Y-88819047D01*
X142130952Y-89104761D02*
X142035714Y-89152380D01*
X141845238Y-89152380D01*
X141750000Y-89104761D01*
X141702380Y-89009523D01*
X141702380Y-88628571D01*
X141750000Y-88533333D01*
X141845238Y-88485714D01*
X142035714Y-88485714D01*
X142130952Y-88533333D01*
X142178571Y-88628571D01*
X142178571Y-88723809D01*
X141702380Y-88819047D01*
X142607142Y-88485714D02*
X142607142Y-89152380D01*
X142607142Y-88580952D02*
X142654761Y-88533333D01*
X142750000Y-88485714D01*
X142892857Y-88485714D01*
X142988095Y-88533333D01*
X143035714Y-88628571D01*
X143035714Y-89152380D01*
X125216666Y-101302380D02*
X125216666Y-102016666D01*
X125169047Y-102159523D01*
X125073809Y-102254761D01*
X124930952Y-102302380D01*
X124835714Y-102302380D01*
X126216666Y-102302380D02*
X125645238Y-102302380D01*
X125930952Y-102302380D02*
X125930952Y-101302380D01*
X125835714Y-101445238D01*
X125740476Y-101540476D01*
X125645238Y-101588095D01*
X136078571Y-101578571D02*
X136411904Y-101578571D01*
X136554761Y-102102380D02*
X136078571Y-102102380D01*
X136078571Y-101102380D01*
X136554761Y-101102380D01*
X136983333Y-101435714D02*
X136983333Y-102102380D01*
X136983333Y-101530952D02*
X137030952Y-101483333D01*
X137126190Y-101435714D01*
X137269047Y-101435714D01*
X137364285Y-101483333D01*
X137411904Y-101578571D01*
X137411904Y-102102380D01*
X137792857Y-101435714D02*
X138030952Y-102102380D01*
X138269047Y-101435714D01*
X138602380Y-102054761D02*
X138745238Y-102102380D01*
X138983333Y-102102380D01*
X139078571Y-102054761D01*
X139126190Y-102007142D01*
X139173809Y-101911904D01*
X139173809Y-101816666D01*
X139126190Y-101721428D01*
X139078571Y-101673809D01*
X138983333Y-101626190D01*
X138792857Y-101578571D01*
X138697619Y-101530952D01*
X138650000Y-101483333D01*
X138602380Y-101388095D01*
X138602380Y-101292857D01*
X138650000Y-101197619D01*
X138697619Y-101150000D01*
X138792857Y-101102380D01*
X139030952Y-101102380D01*
X139173809Y-101150000D01*
X139983333Y-102054761D02*
X139888095Y-102102380D01*
X139697619Y-102102380D01*
X139602380Y-102054761D01*
X139554761Y-101959523D01*
X139554761Y-101578571D01*
X139602380Y-101483333D01*
X139697619Y-101435714D01*
X139888095Y-101435714D01*
X139983333Y-101483333D01*
X140030952Y-101578571D01*
X140030952Y-101673809D01*
X139554761Y-101769047D01*
X140459523Y-101435714D02*
X140459523Y-102102380D01*
X140459523Y-101530952D02*
X140507142Y-101483333D01*
X140602380Y-101435714D01*
X140745238Y-101435714D01*
X140840476Y-101483333D01*
X140888095Y-101578571D01*
X140888095Y-102102380D01*
X141316666Y-102054761D02*
X141411904Y-102102380D01*
X141602380Y-102102380D01*
X141697619Y-102054761D01*
X141745238Y-101959523D01*
X141745238Y-101911904D01*
X141697619Y-101816666D01*
X141602380Y-101769047D01*
X141459523Y-101769047D01*
X141364285Y-101721428D01*
X141316666Y-101626190D01*
X141316666Y-101578571D01*
X141364285Y-101483333D01*
X141459523Y-101435714D01*
X141602380Y-101435714D01*
X141697619Y-101483333D01*
X142316666Y-102102380D02*
X142221428Y-102054761D01*
X142173809Y-102007142D01*
X142126190Y-101911904D01*
X142126190Y-101626190D01*
X142173809Y-101530952D01*
X142221428Y-101483333D01*
X142316666Y-101435714D01*
X142459523Y-101435714D01*
X142554761Y-101483333D01*
X142602380Y-101530952D01*
X142650000Y-101626190D01*
X142650000Y-101911904D01*
X142602380Y-102007142D01*
X142554761Y-102054761D01*
X142459523Y-102102380D01*
X142316666Y-102102380D01*
X143078571Y-102102380D02*
X143078571Y-101435714D01*
X143078571Y-101626190D02*
X143126190Y-101530952D01*
X143173809Y-101483333D01*
X143269047Y-101435714D01*
X143364285Y-101435714D01*
X146220000Y-110500000D02*
X203220000Y-110500000D01*
X146220000Y-80000000D02*
X146220000Y-110500000D01*
X203220000Y-80000000D02*
X146220000Y-80000000D01*
X203220000Y-80500000D02*
X203220000Y-80000000D01*
X203220000Y-110500000D02*
X203220000Y-80500000D01*
X202456051Y-107950000D02*
G75*
G03*
X202456051Y-107950000I-1796051J0D01*
G01*
X202456051Y-82550000D02*
G75*
G03*
X202456051Y-82550000I-1796051J0D01*
G01*
X150386051Y-82550000D02*
G75*
G03*
X150386051Y-82550000I-1796051J0D01*
G01*
X150386051Y-107950000D02*
G75*
G03*
X150386051Y-107950000I-1796051J0D01*
G01*
X151130000Y-91440000D02*
X144780000Y-91440000D01*
X151130000Y-99060000D02*
X151130000Y-91440000D01*
X144780000Y-99060000D02*
X151130000Y-99060000D01*
X144780000Y-91440000D02*
X144780000Y-99060000D01*
X201930000Y-97790000D02*
X201930000Y-101600000D01*
X198120000Y-97790000D02*
X201930000Y-97790000D01*
X198120000Y-96520000D02*
X198120000Y-97790000D01*
X201930000Y-96520000D02*
X198120000Y-96520000D01*
X201930000Y-95250000D02*
X201930000Y-96520000D01*
X198120000Y-95250000D02*
X201930000Y-95250000D01*
X198120000Y-93980000D02*
X198120000Y-95250000D01*
X201930000Y-93980000D02*
X198120000Y-93980000D01*
X201930000Y-92710000D02*
X201930000Y-93980000D01*
X198120000Y-92710000D02*
X201930000Y-92710000D01*
X198120000Y-91440000D02*
X198120000Y-92710000D01*
X201930000Y-91440000D02*
X198120000Y-91440000D01*
X201930000Y-90170000D02*
X201930000Y-91440000D01*
X196850000Y-90170000D02*
X201930000Y-90170000D01*
X196850000Y-97790000D02*
X196850000Y-90170000D01*
X181720000Y-89250000D02*
X195720000Y-89250000D01*
X181720000Y-101250000D02*
X181720000Y-89250000D01*
X195720000Y-101250000D02*
X181720000Y-101250000D01*
X195720000Y-89250000D02*
X195720000Y-101250000D01*
D11*
X133567000Y-94210500D02*
X133567000Y-94366500D01*
X133567000Y-96526500D02*
X133567000Y-96682500D01*
X136168130Y-94366663D02*
G75*
G03*
X134086039Y-94366500I-1041130J-1079837D01*
G01*
X133567000Y-96682016D02*
G75*
G03*
X136799335Y-96525108I1560000J1235516D01*
G01*
X134086039Y-96526500D02*
G75*
G03*
X136168130Y-96526337I1040961J1080000D01*
G01*
X136799335Y-94367892D02*
G75*
G03*
X133567000Y-94210984I-1672335J-1078608D01*
G01*
X156675000Y-82297000D02*
X156675000Y-84837000D01*
X156675000Y-84837000D02*
X149775000Y-84837000D01*
X149775000Y-84837000D02*
X149775000Y-108157000D01*
X156675000Y-82297000D02*
X182105000Y-82297000D01*
X184235000Y-106037000D02*
X184235000Y-84427000D01*
X149775000Y-108157000D02*
X182105000Y-108157000D01*
X182105000Y-108157000D02*
G75*
G03*
X184235000Y-106027000I0J2130000D01*
G01*
X184235000Y-84427000D02*
G75*
G03*
X182105000Y-82297000I-2130002J-2D01*
G01*
G36*
X175895000Y-81892000D02*
G01*
X175260000Y-81257000D01*
X176530000Y-81257000D01*
X175895000Y-81892000D01*
G37*
D10*
X175895000Y-81892000D02*
X175260000Y-81257000D01*
X176530000Y-81257000D01*
X175895000Y-81892000D01*
D11*
X140185000Y-95322936D02*
X140185000Y-95777064D01*
X138715000Y-95322936D02*
X138715000Y-95777064D01*
X143256000Y-87757000D02*
X122936000Y-87757000D01*
X143256000Y-80137000D02*
X122936000Y-80137000D01*
X122936000Y-80137000D02*
X122936000Y-87757000D01*
X143256000Y-87757000D02*
X143256000Y-80137000D01*
X122936000Y-81407000D02*
X143256000Y-81407000D01*
X122936000Y-102743000D02*
X143256000Y-102743000D01*
X122936000Y-110363000D02*
X143256000Y-110363000D01*
X143256000Y-110363000D02*
X143256000Y-102743000D01*
X122936000Y-102743000D02*
X122936000Y-110363000D01*
X143256000Y-109093000D02*
X122936000Y-109093000D01*
M02*
