M48
; DRILL file {KiCad (6.0.4)} date Fri 29 Apr 2022 09:34:00 PM WEST
; FORMAT={-:-/ absolute / metric / decimal}
; #@! TF.CreationDate,2022-04-29T21:34:00+01:00
; #@! TF.GenerationSoftware,Kicad,Pcbnew,(6.0.4)
; #@! TF.FileFunction,Plated,1,2,PTH
FMAT,2
METRIC
; #@! TA.AperFunction,Plated,PTH,ViaDrill
T1C0.200
; #@! TA.AperFunction,Plated,PTH,ViaDrill
T2C0.300
; #@! TA.AperFunction,Plated,PTH,ComponentDrill
T3C0.762
; #@! TA.AperFunction,Plated,PTH,ComponentDrill
T4C0.900
; #@! TA.AperFunction,Plated,PTH,ComponentDrill
T5C1.000
; #@! TA.AperFunction,Plated,PTH,ComponentDrill
T6C1.520
; #@! TA.AperFunction,Plated,PTH,ViaDrill
T7C3.500
%
G90
G05
T1
X125.476Y-91.626
X129.564Y-103.814
X135.636Y-103.814
X140.716Y-102.466
X141.05Y-91.6
X168.284Y-102.466
X170.814Y-103.814
X188.595Y-102.505
X191.064Y-103.814
T2
X125.476Y-100.024
X130.556Y-95.456
X133.857Y-89.993
X158.074Y-100.024
X158.1Y-94.65
X159.405Y-89.995
X167.0Y-94.6
X169.565Y-89.985
X178.435Y-90.015
T3
X158.115Y-81.28
X158.115Y-109.22
X160.655Y-81.28
X160.655Y-109.22
X163.195Y-81.28
X163.195Y-109.22
X165.735Y-81.28
X165.735Y-109.22
X168.275Y-81.28
X168.275Y-109.22
X170.815Y-81.28
X170.815Y-109.22
X173.355Y-81.28
X173.355Y-109.22
X175.895Y-81.28
X175.895Y-109.22
X178.435Y-81.28
X178.435Y-109.22
X180.975Y-81.28
X180.975Y-109.22
X183.515Y-81.28
X183.515Y-109.22
X186.055Y-81.28
X186.055Y-109.22
X188.595Y-81.28
X188.595Y-109.22
X191.135Y-81.28
X191.135Y-109.22
X193.675Y-81.28
X193.675Y-109.22
T4
X133.857Y-95.447
X136.397Y-95.447
T5
X158.115Y-83.797
X158.115Y-106.657
X160.655Y-83.797
X160.655Y-106.657
X163.195Y-83.797
X163.195Y-106.657
X165.735Y-83.797
X165.735Y-106.657
X168.275Y-83.797
X168.275Y-106.657
X170.815Y-83.797
X170.815Y-106.657
X173.355Y-83.797
X173.355Y-106.657
X175.895Y-83.797
X175.895Y-106.657
T6
X125.476Y-83.947
X125.476Y-106.553
X130.556Y-83.947
X130.556Y-106.553
X135.636Y-83.947
X135.636Y-106.553
X140.716Y-83.947
X140.716Y-106.553
T7
X126.1Y-95.5
X203.15Y-82.9
X203.2Y-107.5
T0
M30
